<svg width="85" height="80" viewBox="0 0 85 80" fill="none" xmlns="http://www.w3.org/2000/svg">
<rect width="84.3798" height="79.5581" rx="12.0543" fill="#6097FF"/>
<path d="M31.8789 29.6914H54.9749H59.1214V38.8313" stroke="white" stroke-width="1.80814" stroke-linecap="round" stroke-linejoin="round"/>
<path d="M28.2464 29.6914H21.7461V52.4722C21.7461 53.2794 22.0667 54.0535 22.6375 54.6242C23.2082 55.1949 23.9823 55.5156 24.7894 55.5156H37.5932" stroke="white" stroke-width="1.80814" stroke-linecap="round" stroke-linejoin="round"/>
<path d="M21.6953 29.694L29.7617 19.6382C30.1494 19.1536 30.6409 18.7622 31.2 18.4928C31.7591 18.2235 32.3715 18.0831 32.9921 18.082H48.2976C48.9296 18.0824 49.553 18.2294 50.1187 18.5113C50.6843 18.7933 51.1769 19.2026 51.5577 19.7071L59.1315 29.694" stroke="white" stroke-width="1.80814" stroke-linecap="round" stroke-linejoin="round"/>
<path d="M35.7266 30.2695V37.6268C35.7266 38.2641 35.9798 38.8754 36.4305 39.3261C36.8812 39.7767 37.4924 40.0299 38.1298 40.0299H42.3255C42.6398 40.0299 42.951 39.968 43.2414 39.8477C43.5318 39.7275 43.7956 39.5512 44.0178 39.3289C44.2401 39.1067 44.4163 38.8429 44.5366 38.5525C44.6569 38.2621 44.7187 37.9509 44.7187 37.6366V35.5191" stroke="white" stroke-width="1.80814" stroke-linecap="round" stroke-linejoin="round"/>
<path d="M44.7202 32.4912V31.0828C44.7192 29.9494 44.5736 28.8207 44.2869 27.7242L41.7852 18.082" stroke="white" stroke-width="1.80814" stroke-linecap="round" stroke-linejoin="round"/>
<path d="M35.7266 32.501V30.9153C35.7263 29.892 35.8554 28.8728 36.1107 27.8818L38.6616 18.082" stroke="white" stroke-width="1.80814" stroke-linecap="round" stroke-linejoin="round"/>
<path d="M46.8448 63.9136C44.8108 61.6753 43.6813 58.7609 43.6758 55.7365C43.6703 52.7121 44.7893 49.7937 46.8153 47.5481C48.8412 45.3025 51.6295 43.8902 54.6385 43.5855C57.6475 43.2808 60.6624 44.1054 63.0975 45.8992C65.5325 47.693 67.2138 50.3279 67.8148 53.292C68.4157 56.2561 67.8936 59.3378 66.3496 61.9383C64.8055 64.5389 62.3499 66.4727 59.4598 67.3641C56.5697 68.2554 53.4515 68.0407 50.7109 66.7616H50.595" stroke="white" stroke-width="1.80814" stroke-linecap="round" stroke-linejoin="round"/>
<path d="M48.1191 47.5391L64.6145 64.2921" stroke="white" stroke-width="1.80814" stroke-linecap="round" stroke-linejoin="round"/>
</svg>
