<svg width="86" height="60" viewBox="0 0 86 60" fill="none" xmlns="http://www.w3.org/2000/svg">
<circle opacity="0.8" cx="44.0511" cy="12.1382" r="8.3609" fill="#D7E5FF"/>
<path opacity="0.8" d="M37.9854 23.6172H57.0023L56.5105 45.2572H33.3951L30.7721 44.6014L28.8048 43.7817L27.3293 42.3063V40.175V36.0766V32.7978L29.6245 29.3551L33.3951 26.0763L37.9854 23.6172Z" fill="#D7E5FF"/>
<g filter="url(#filter0_d_3762_7543)">
<path d="M30.6499 28.565L33.5855 25.7276C35.037 24.3198 36.9686 23.5449 38.9766 23.5449H49.235C49.235 23.5449 49.3114 23.5449 49.355 23.5449" stroke="#6097FF" stroke-width="1.35" stroke-linecap="round" stroke-linejoin="round"/>
<path d="M46.4851 44.9238H31.7196C29.2205 44.9238 27.1907 42.9049 27.1907 40.3948V35.1893C27.1907 33.0939 28.0419 31.075 29.5588 29.6235L33.5967 25.7166C35.0481 24.3198 36.9689 23.5449 38.9769 23.5449H49.2352" stroke="#6097FF" stroke-width="1.35" stroke-linecap="round" stroke-linejoin="round"/>
<path d="M44.5848 20.588C49.1654 20.588 52.8788 16.8746 52.8788 12.294C52.8788 7.71335 49.1654 4 44.5848 4C40.0041 4 36.2908 7.71335 36.2908 12.294C36.2908 16.8746 40.0041 20.588 44.5848 20.588Z" stroke="#6097FF" stroke-width="1.35" stroke-linecap="round" stroke-linejoin="round"/>
</g>
<g filter="url(#filter1_d_3762_7543)">
<circle cx="59.9528" cy="35.5834" r="11.1479" fill="#D7E5FF"/>
</g>
<g filter="url(#filter2_d_3762_7543)">
<path d="M69.2202 42.1274C70.5843 40.2395 71.381 37.9368 71.381 35.4377C71.381 29.0971 66.2409 23.957 59.9003 23.957C53.5598 23.957 48.4197 29.0971 48.4197 35.4377C48.4197 40.5669 51.7918 44.9212 56.4408 46.3836" stroke="#6097FF" stroke-width="1.35" stroke-linecap="round" stroke-linejoin="round"/>
<path d="M66.7759 44.6426C65.0625 45.9303 62.9672 46.7488 60.6973 46.9016" stroke="#6097FF" stroke-width="1.35" stroke-linecap="round" stroke-linejoin="round"/>
<path d="M69.2209 42.123C69.3191 42.1885 69.4283 42.2649 69.5156 42.3522L77.7987 50.6353C78.3661 51.2028 78.3661 52.1304 77.7987 52.6979L77.3294 53.1781C76.751 53.7456 75.8343 53.7456 75.2668 53.1781L66.9837 44.895C66.9073 44.8186 66.8309 44.7204 66.7764 44.6331" stroke="#6097FF" stroke-width="1.35" stroke-linecap="round" stroke-linejoin="round"/>
</g>
<g filter="url(#filter3_f_3762_7543)">
<path d="M64.5053 14.6248C63.8715 14.6248 63.3577 15.1386 63.3577 15.7723C63.3577 16.4061 63.8715 16.9199 64.5053 16.9199C65.139 16.9199 65.6528 16.4061 65.6528 15.7723C65.6528 15.1386 65.139 14.6248 64.5053 14.6248Z" fill="#6097FF"/>
</g>
<g filter="url(#filter4_f_3762_7543)">
<path d="M19.7078 16.2758C18.2439 16.2758 17.0572 15.0891 17.0572 13.6252C17.0572 12.1613 18.2439 10.9746 19.7078 10.9746C21.1717 10.9746 22.3584 12.1613 22.3584 13.6252C22.3584 15.0891 21.1717 16.2758 19.7078 16.2758Z" fill="#6097FF"/>
</g>
<path d="M66.9716 3.57875C66.321 3.57875 65.7936 3.05132 65.7936 2.4007C65.7936 1.75009 66.321 1.22266 66.9716 1.22266C67.6222 1.22266 68.1497 1.75009 68.1497 2.4007C68.1497 3.05132 67.6222 3.57875 66.9716 3.57875Z" fill="#6097FF"/>
<path d="M0.883555 29.7964C0.395592 29.7964 2.0504e-05 29.4008 2.0504e-05 28.9128C2.0504e-05 28.4249 0.395592 28.0293 0.883555 28.0293C1.37152 28.0293 1.76709 28.4249 1.76709 28.9128C1.76709 29.4008 1.37152 29.7964 0.883555 29.7964Z" fill="#6097FF"/>
<g filter="url(#filter5_f_3762_7543)">
<path d="M21.5906 50.0835C21.1026 50.0835 20.7071 49.6879 20.7071 49.1999C20.7071 48.712 21.1026 48.3164 21.5906 48.3164C22.0785 48.3164 22.4741 48.712 22.4741 49.1999C22.4741 49.6879 22.0785 50.0835 21.5906 50.0835Z" fill="#6097FF"/>
</g>
<path d="M84.6469 32.8751C85.0025 34.2024 84.2149 35.5666 82.8876 35.9222C81.5604 36.2779 80.1961 35.4902 79.8405 34.163C79.4848 32.8357 80.2725 31.4715 81.5997 31.1158C82.927 30.7602 84.2913 31.5478 84.6469 32.8751Z" fill="#6097FF"/>
<defs>
<filter id="filter0_d_3762_7543" x="20.968" y="0.946657" width="34.9633" height="50.2006" filterUnits="userSpaceOnUse" color-interpolation-filters="sRGB">
<feFlood flood-opacity="0" result="BackgroundImageFix"/>
<feColorMatrix in="SourceAlpha" type="matrix" values="0 0 0 0 0 0 0 0 0 0 0 0 0 0 0 0 0 0 127 0" result="hardAlpha"/>
<feOffset dx="-1.58504" dy="1.58504"/>
<feGaussianBlur stdDeviation="1.9813"/>
<feComposite in2="hardAlpha" operator="out"/>
<feColorMatrix type="matrix" values="0 0 0 0 0.188235 0 0 0 0 0.294118 0 0 0 0 0.498039 0 0 0 0.3 0"/>
<feBlend mode="normal" in2="BackgroundImageFix" result="effect1_dropShadow_3762_7543"/>
<feBlend mode="normal" in="SourceGraphic" in2="effect1_dropShadow_3762_7543" result="shape"/>
</filter>
<filter id="filter1_d_3762_7543" x="44.8049" y="24.4355" width="30.2957" height="30.2949" filterUnits="userSpaceOnUse" color-interpolation-filters="sRGB">
<feFlood flood-opacity="0" result="BackgroundImageFix"/>
<feColorMatrix in="SourceAlpha" type="matrix" values="0 0 0 0 0 0 0 0 0 0 0 0 0 0 0 0 0 0 127 0" result="hardAlpha"/>
<feOffset dy="4"/>
<feGaussianBlur stdDeviation="2"/>
<feComposite in2="hardAlpha" operator="out"/>
<feColorMatrix type="matrix" values="0 0 0 0 0.282353 0 0 0 0 0.443137 0 0 0 0 0.74902 0 0 0 0.3 0"/>
<feBlend mode="normal" in2="BackgroundImageFix" result="effect1_dropShadow_3762_7543"/>
<feBlend mode="normal" in="SourceGraphic" in2="effect1_dropShadow_3762_7543" result="shape"/>
</filter>
<filter id="filter2_d_3762_7543" x="43.782" y="21.6962" width="37.4947" height="37.3382" filterUnits="userSpaceOnUse" color-interpolation-filters="sRGB">
<feFlood flood-opacity="0" result="BackgroundImageFix"/>
<feColorMatrix in="SourceAlpha" type="matrix" values="0 0 0 0 0 0 0 0 0 0 0 0 0 0 0 0 0 0 127 0" result="hardAlpha"/>
<feOffset dx="-0.79252" dy="1.58504"/>
<feGaussianBlur stdDeviation="1.58504"/>
<feComposite in2="hardAlpha" operator="out"/>
<feColorMatrix type="matrix" values="0 0 0 0 0 0 0 0 0 0 0 0 0 0 0 0 0 0 0.15 0"/>
<feBlend mode="normal" in2="BackgroundImageFix" result="effect1_dropShadow_3762_7543"/>
<feBlend mode="normal" in="SourceGraphic" in2="effect1_dropShadow_3762_7543" result="shape"/>
</filter>
<filter id="filter3_f_3762_7543" x="61.3764" y="12.6437" width="6.25777" height="6.25752" filterUnits="userSpaceOnUse" color-interpolation-filters="sRGB">
<feFlood flood-opacity="0" result="BackgroundImageFix"/>
<feBlend mode="normal" in="SourceGraphic" in2="BackgroundImageFix" result="shape"/>
<feGaussianBlur stdDeviation="0.99065" result="effect1_foregroundBlur_3762_7543"/>
</filter>
<filter id="filter4_f_3762_7543" x="13.0945" y="7.01201" width="13.2265" height="13.226" filterUnits="userSpaceOnUse" color-interpolation-filters="sRGB">
<feFlood flood-opacity="0" result="BackgroundImageFix"/>
<feBlend mode="normal" in="SourceGraphic" in2="BackgroundImageFix" result="shape"/>
<feGaussianBlur stdDeviation="1.9813" result="effect1_foregroundBlur_3762_7543"/>
</filter>
<filter id="filter5_f_3762_7543" x="19.9145" y="47.5239" width="3.35213" height="3.35262" filterUnits="userSpaceOnUse" color-interpolation-filters="sRGB">
<feFlood flood-opacity="0" result="BackgroundImageFix"/>
<feBlend mode="normal" in="SourceGraphic" in2="BackgroundImageFix" result="shape"/>
<feGaussianBlur stdDeviation="0.39626" result="effect1_foregroundBlur_3762_7543"/>
</filter>
</defs>
</svg>
