<svg width="200" height="37" viewBox="0 0 200 37" fill="none" xmlns="http://www.w3.org/2000/svg">
<path fill-rule="evenodd" clip-rule="evenodd" d="M153.033 9.22853C152.934 9.65632 152.505 9.9195 152.044 9.82081L150.065 9.32746C147.328 16.3355 143.667 23.0142 139.083 28.9693L139.017 29.0353C138.259 30.0552 137.467 31.0423 136.643 31.9963C136.016 32.5888 132.883 30.417 133.873 29.3972L133.906 29.3642C134.07 29.1668 134.203 29.0023 134.334 28.8049C136.973 25.6133 139.38 22.2247 141.458 18.6383L142.249 17.1249C143.799 14.3281 145.151 11.4001 146.338 8.40613L144.59 7.97833C144.459 7.94533 144.327 7.87959 144.228 7.7809C143.898 7.48498 143.898 6.99125 144.195 6.66239L149.504 1.10201C149.669 0.970328 149.867 0.871582 150.098 0.871582C150.461 0.871582 150.758 1.10201 150.856 1.43087L153.033 8.80073C153.066 8.93266 153.066 9.0971 153.033 9.22853ZM27.9801 18.2791V15.4168C28.0131 14.8576 27.8814 14.331 27.5185 13.9032C27.0568 13.5414 26.4632 13.4099 25.8696 13.4757H15.7784V13.4429C14.7231 13.344 13.6348 13.6074 12.7442 14.1666C12.3487 14.6272 12.1177 15.1535 12.0188 15.713C11.9857 15.9761 11.9857 16.2394 12.0188 16.5026V18.8386H27.3865C27.7822 18.8386 27.9801 18.6409 27.9801 18.2791ZM31.8387 12.6203C32.0365 13.2455 32.1355 13.9362 32.1024 14.6272V20.7798C32.1683 21.339 32.0035 21.8986 31.6408 22.3261C31.212 22.6223 30.6842 22.7867 30.1567 22.721H12.0188V24.2343C12.0188 26.4059 12.6785 27.2613 15.7784 27.2613H30.7173C31.0141 27.2943 31.245 27.5904 31.1791 27.8863V30.1566C31.212 30.1895 31.212 30.2555 31.1791 30.2882C31.1461 30.5844 30.8821 30.8147 30.5855 30.7818H15.3165C14.1952 30.8147 13.0742 30.683 11.9857 30.3869C8.721 29.5315 7.73162 27.3929 7.73162 23.0501V16.4039C7.6988 16.075 7.59963 15.713 7.40174 15.3508C7.03904 14.4957 6.14863 13.7058 4.26878 13.7058H0.806194C0.740294 13.7058 0.0147004 13.673 0.0147004 12.4886V11.0409C0.0147004 11.031 0.0116798 11.0181 0.008377 11.004L0.008376 11.0039L0.00837557 11.0039C0.000749526 10.9713 -0.00837856 10.9323 0.0147004 10.9092C0.0147004 10.4817 0.410479 10.1526 0.83927 10.1856H4.63173C6.21472 10.1856 7.7647 10.712 9.0837 11.6332L9.28143 11.4359L9.47942 11.2383C10.2051 10.6131 11.0624 10.1856 11.9857 9.98789C13.0742 9.69203 14.1624 9.56054 15.2837 9.59328H26.8259C27.5844 9.56054 28.343 9.65903 29.0353 9.8894C30.4207 10.1526 31.5418 11.2383 31.8387 12.6203ZM50.01 27.8169C50.2078 27.784 50.4057 27.9154 50.4386 28.1458C50.4716 28.1788 50.4716 28.2118 50.4386 28.2446V30.3174C50.4716 30.5148 50.3396 30.7452 50.1089 30.7452C50.0759 30.7779 50.0428 30.7779 50.01 30.7452H40.0505C39.0942 30.7779 38.1708 30.6793 37.2472 30.4818C36.588 30.3502 35.9613 30.0542 35.4335 29.6264C34.9719 29.1986 34.642 28.6724 34.4772 28.0799C34.2463 27.3234 34.1476 26.5338 34.1804 25.7771V22.2236C34.1476 21.4669 34.2463 20.6773 34.4772 19.9534C34.642 19.3613 34.9719 18.802 35.4335 18.4072C35.5325 18.3083 35.6314 18.2426 35.7634 18.1768C36.0602 17.9465 36.3901 17.782 36.7528 17.6833C36.9176 17.5846 37.0824 17.5516 37.2472 17.5188C38.0718 17.3214 38.9292 17.1895 39.8196 17.1895C39.8857 17.1895 39.9845 17.1895 40.0505 17.2225H50.01C50.2078 17.1895 50.4057 17.3214 50.4386 17.5516V19.7232C50.4386 19.8219 50.4386 19.8876 50.3727 19.9534C50.3396 20.085 50.2407 20.1507 50.1089 20.1837H40.4132C39.9516 20.1507 39.49 20.2167 39.0612 20.3154C38.7644 20.3812 38.4677 20.5456 38.2368 20.7759C38.039 21.0064 37.8739 21.3023 37.8411 21.5986C37.7422 22.0262 37.7091 22.454 37.7091 22.8816V25.0861C37.7091 25.5137 37.7422 25.9745 37.8411 26.4021C37.9398 27.0273 38.4347 27.5536 39.0612 27.6853C39.5228 27.784 39.9516 27.8169 40.4132 27.8169H50.01ZM67.3229 27.2918C67.5536 27.0614 67.7187 26.7982 67.7846 26.4691C67.8507 26.0413 67.9166 25.6137 67.8835 25.1532V22.8172C67.8835 22.6198 67.8835 22.3894 67.8507 22.1919C67.8507 21.9877 67.8247 21.8091 67.7957 21.6107L67.7957 21.6106L67.7846 21.534C67.7515 21.4023 67.7187 21.3036 67.6528 21.2051C67.5867 21.0077 67.4549 20.8431 67.3229 20.6784C67.0922 20.481 66.8282 20.3165 66.4986 20.251C66.0698 20.1521 65.6081 20.1191 65.1793 20.1191H58.8807C58.419 20.1191 57.9902 20.1521 57.5614 20.251C57.2318 20.3165 56.9678 20.481 56.704 20.6784C56.704 20.6949 56.6957 20.7031 56.6874 20.7114C56.6792 20.7196 56.6709 20.7279 56.6709 20.7443C56.4731 20.9748 56.3744 21.2709 56.3082 21.534C56.2093 21.9618 56.1765 22.3894 56.1765 22.8172V25.1532C56.1765 25.6137 56.2093 26.0413 56.3082 26.4691C56.3744 26.7652 56.5061 27.0614 56.704 27.2918C56.9678 27.522 57.2318 27.6864 57.5614 27.7523C57.9902 27.8513 58.419 27.8838 58.8807 27.8838H65.1793C65.6081 27.8838 66.0698 27.8513 66.4986 27.7523C66.8282 27.6864 67.0922 27.522 67.3229 27.2918ZM68.3123 17.52C69.0046 17.6516 69.5985 17.9478 70.126 18.4086C70.5879 18.8034 70.9506 19.3626 71.1154 19.9547C71.2802 20.6129 71.3792 21.3036 71.4122 21.9946V25.7784C71.4122 26.5681 71.3133 27.3245 71.1154 28.0812C70.9175 28.6737 70.5879 29.1999 70.126 29.6278C69.5985 30.0556 68.9718 30.3515 68.3123 30.4831C67.3888 30.6806 66.4655 30.7793 65.542 30.7793H58.5177C57.5945 30.7793 56.6379 30.6806 55.7146 30.4831C55.0551 30.3515 54.4284 30.0556 53.9009 29.6278C53.4393 29.1999 53.1094 28.6737 52.9444 28.0812C52.7136 27.3245 52.6147 26.5681 52.6478 25.7784V22.2249C52.6147 21.567 52.6808 20.876 52.8787 20.251C52.8787 20.1521 52.9113 20.0536 52.9444 19.9547C53.0435 19.5598 53.2414 19.1652 53.538 18.8359C53.6041 18.6715 53.7359 18.54 53.9009 18.4086C54.4284 17.9478 55.0551 17.6516 55.7146 17.52C56.6379 17.2898 57.5614 17.1909 58.5177 17.2239H65.7399C66.5973 17.2239 67.4877 17.3228 68.3123 17.52ZM124.837 30.22V22.2249C124.87 21.4682 124.771 20.6786 124.54 19.9548C124.375 19.3626 124.045 18.8033 123.584 18.4085C123.056 17.9477 122.429 17.6516 121.737 17.5201C120.912 17.3227 120.055 17.2238 119.197 17.2238H106.336C105.38 17.191 104.456 17.2897 103.533 17.5201C102.84 17.6516 102.247 17.9477 101.719 18.4085C101.257 18.8033 100.928 19.3626 100.762 19.9548C100.532 20.6786 100.433 21.4682 100.466 22.2249V30.22C100.466 30.5818 100.631 30.7792 101.026 30.7792H103.599C103.83 30.7135 104.027 30.4831 103.995 30.22V23.0805C103.995 22.6197 104.027 22.1919 104.126 21.7643C104.159 21.4682 104.324 21.1721 104.522 20.9417C104.753 20.7113 105.05 20.5469 105.38 20.4811C105.808 20.3825 106.237 20.3495 106.666 20.3495H110.887V30.3515C110.92 30.6148 111.184 30.8122 111.447 30.7792H113.855C114.251 30.7792 114.415 30.5818 114.415 30.22V20.3495H118.769C119.23 20.3495 119.659 20.3825 120.088 20.4811C120.385 20.5469 120.648 20.7113 120.846 20.9417C121.044 21.1721 121.176 21.4682 121.242 21.7643C121.308 22.1919 121.341 22.6197 121.341 23.0805V30.22C121.308 30.253 121.308 30.3187 121.341 30.3515C121.374 30.6148 121.605 30.8122 121.869 30.7792H124.441C124.705 30.7135 124.87 30.4831 124.837 30.22ZM97.7292 19.9547C97.9599 20.6784 98.0588 21.4683 98.026 22.2249V30.22C98.0588 30.4831 97.894 30.7136 97.6302 30.7466C97.5972 30.7793 97.5313 30.7793 97.4982 30.7466H95.0578C94.7941 30.8123 94.5631 30.6149 94.5303 30.3515V23.0803C94.5303 22.6198 94.4972 22.1919 94.4314 21.7642C94.3983 21.4683 94.2663 21.1721 94.0684 20.9418C93.8705 20.7114 93.5737 20.5469 93.2772 20.481C92.8483 20.3825 92.4195 20.3495 91.991 20.3495H87.6377V30.22C87.6377 30.5819 87.4399 30.7793 87.0441 30.7793H84.6368C84.373 30.8123 84.109 30.6149 84.076 30.3515V20.3495H79.888C79.4263 20.3495 78.9975 20.3825 78.5687 20.481C78.2719 20.5469 77.9751 20.7114 77.7444 20.9418C77.5135 21.1721 77.3817 21.4683 77.3156 21.7642C77.2169 22.1919 77.1838 22.6198 77.1838 23.0803V30.22C77.2169 30.4831 77.0516 30.7136 76.7881 30.7466C76.755 30.7793 76.689 30.7793 76.6561 30.7466H74.2157C73.853 30.7466 73.6552 30.5819 73.6552 30.22V22.2249C73.6221 21.4683 73.7538 20.6784 73.9517 19.9547C74.1168 19.3626 74.4467 18.8034 74.9083 18.4086C75.4358 17.9478 76.0625 17.6516 76.722 17.52C77.6453 17.2898 78.6018 17.1909 79.5251 17.2239H92.3865C93.2441 17.2239 94.1015 17.3228 94.9261 17.52C95.6184 17.6516 96.2451 17.9478 96.7728 18.4086C97.2342 18.8034 97.5972 19.3626 97.7292 19.9547ZM135.66 23.6143C135.878 23.5846 136.026 23.3839 135.993 23.1701V21.3934C136 21.3573 136 21.3179 135.993 21.2816C135.964 21.0678 135.763 20.9198 135.548 20.9492H128.102C128.065 20.9428 128.026 20.9428 127.989 20.9492C127.775 20.9789 127.623 21.1796 127.657 21.3934V23.1701C127.65 23.2097 127.65 23.2458 127.657 23.2852C127.686 23.4992 127.887 23.6473 128.102 23.6143H135.548C135.584 23.621 135.624 23.621 135.66 23.6143ZM175.425 26.4036C175.524 25.9758 175.557 25.5152 175.557 25.0874V22.8831C175.557 22.4553 175.524 22.0277 175.425 21.5999C175.359 21.3035 175.194 21.0077 174.963 20.7772C174.766 20.5469 174.469 20.3825 174.172 20.3167C173.71 20.218 173.281 20.1523 172.82 20.185H166.587C166.158 20.1523 165.697 20.218 165.268 20.3167C164.971 20.3825 164.674 20.5469 164.443 20.7772C164.212 21.0077 164.081 21.3035 164.015 21.5999L164.014 21.6026C163.949 22.0295 163.883 22.4562 163.916 22.8831L163.883 25.7454V27.8182H172.82C173.281 27.8182 173.71 27.7852 174.172 27.6866C174.469 27.6208 174.766 27.4564 174.963 27.226C175.194 26.9958 175.359 26.6995 175.425 26.4036ZM175.953 17.5201C176.612 17.6516 177.239 17.9479 177.767 18.4085C178.228 18.8033 178.591 19.3626 178.756 19.9548C178.954 20.6786 179.053 21.4682 179.053 22.2249V25.7784C179.053 26.5351 178.954 27.2588 178.789 27.9827C178.789 27.9992 178.781 28.0157 178.773 28.0322C178.764 28.0487 178.756 28.0651 178.756 28.0814C178.558 28.6736 178.228 29.2002 177.767 29.6277C177.239 30.0555 176.612 30.3514 175.953 30.4834C175.03 30.6807 174.106 30.7792 173.15 30.7792H163.883V35.6817C163.916 35.9448 163.751 36.1752 163.487 36.2082C163.421 36.2409 163.388 36.2409 163.355 36.2082H160.915C160.552 36.2082 160.354 36.0437 160.354 35.6817V22.2249C160.321 21.4682 160.453 20.7116 160.651 19.9548C160.816 19.3626 161.146 18.8361 161.607 18.4085C162.135 17.9807 162.762 17.6516 163.421 17.5201C164.345 17.2898 165.301 17.191 166.224 17.2238H173.15C174.106 17.191 175.03 17.2898 175.953 17.5201ZM196.498 25.0864C196.498 25.3167 196.498 25.5799 196.465 25.8103L196.366 26.4025C196.3 26.6984 196.168 26.9948 195.938 27.225C195.707 27.4553 195.41 27.6197 195.113 27.6855C194.685 27.7842 194.223 27.8172 193.794 27.8172H184.857V22.882C184.857 22.4542 184.89 22.0266 184.989 21.5988C185.055 21.3025 185.187 21.0066 185.385 20.7762C185.451 20.7105 185.549 20.6447 185.616 20.6117C185.813 20.4473 186.011 20.3486 186.242 20.3156C186.319 20.3047 186.395 20.2901 186.472 20.2756C186.626 20.2463 186.78 20.2169 186.935 20.2169H186.967C187.165 20.1839 187.363 20.1839 187.561 20.1839H193.794C194.223 20.1512 194.685 20.2169 195.113 20.3156C195.41 20.3814 195.707 20.5458 195.938 20.7762C196.168 21.0066 196.333 21.3025 196.366 21.5988C196.465 22.0266 196.498 22.4542 196.498 22.882V25.0864ZM199.697 19.9538C199.532 19.3615 199.202 18.8023 198.708 18.4075C198.213 17.9469 197.587 17.6506 196.927 17.5191C196.663 17.4531 196.399 17.3874 196.136 17.3546C195.476 17.2557 194.783 17.19 194.124 17.2227H187.198C186.242 17.19 185.286 17.2887 184.362 17.5191C183.703 17.6506 183.109 17.9796 182.581 18.4075C182.12 18.835 181.79 19.3615 181.592 19.9538C181.427 20.5788 181.328 21.171 181.328 21.7963C181.295 21.9276 181.295 22.0922 181.295 22.2237V22.2239V35.6806C181.295 36.0426 181.493 36.2071 181.889 36.2071H184.296C184.362 36.2399 184.395 36.2399 184.428 36.2071C184.692 36.1741 184.89 35.9438 184.857 35.6806V30.7782H194.124C195.047 30.7782 196.004 30.6797 196.927 30.4823C197.587 30.3504 198.213 30.0545 198.708 29.6267C199.17 29.1991 199.532 28.6726 199.697 28.0803C199.928 27.3236 200.027 26.567 199.994 25.7773V22.2239C200.027 21.4671 199.928 20.6775 199.697 19.9538ZM11.0297 34.7973C11.0297 33.7116 11.9199 32.8232 13.0082 32.8232C14.0966 32.8232 14.9868 33.7116 14.9868 34.7973C14.9868 35.8831 14.0966 36.7715 13.0082 36.7715C11.9199 36.7715 11.0297 35.8831 11.0297 34.7973ZM26.9908 32.8232C25.9027 32.8232 25.0123 33.7116 25.0123 34.7973C25.0123 35.8831 25.9027 36.7715 26.9908 36.7715C28.0791 36.7715 28.9696 35.8831 28.9696 34.7973C28.9696 33.7116 28.0791 32.8232 26.9908 32.8232ZM157.683 29.0344L156.562 26.9945L150.131 15.3802L150.126 15.372C149.996 15.1444 149.865 14.9169 149.702 14.6894C149.076 16.0054 148.416 17.2886 147.789 18.4729L150.988 24.3951H144.261C143.568 25.4482 142.909 26.4022 142.315 27.2576H152.571L152.736 27.5867L153.594 29.1003L154.319 30.449C154.418 30.6464 154.649 30.7781 154.88 30.7781H158.013C158.211 30.7781 158.342 30.7124 158.376 30.6134C158.409 30.482 158.409 30.3176 158.309 30.1859L157.683 29.0344Z" fill="url(#paint0_linear_6549_4312)"/>
<defs>
<linearGradient id="paint0_linear_6549_4312" x1="74.1936" y1="-3.9672" x2="73.455" y2="36.2965" gradientUnits="userSpaceOnUse">
<stop stop-color="#6097FF"/>
<stop offset="0.489583" stop-color="#3C67FD"/>
<stop offset="1" stop-color="#A84FF2"/>
</linearGradient>
</defs>
</svg>
