<svg width="175" height="35" viewBox="0 0 175 35" fill="none" xmlns="http://www.w3.org/2000/svg">
<path fill-rule="evenodd" clip-rule="evenodd" d="M53.4071 0H5.46587C2.43198 0 -0.0239032 2.47595 0.00017556 5.48085V23.75C0.00017556 26.7791 2.45637 29.2309 5.49025 29.2309H28.1967L38.5747 35L36.215 29.2309H53.4071C56.4412 29.2309 58.8972 26.7788 58.8972 23.75V5.48085C58.8972 2.45183 56.441 0 53.4071 0ZM4.86166 4.25452C4.19129 4.30231 3.6885 4.54134 3.35332 4.99546L3.35359 4.99542C3.01842 5.42565 2.87476 5.97539 2.97053 6.59684C4.38314 15.5599 5.69997 21.6069 6.921 24.7381C7.39984 25.8854 7.95051 26.4351 8.59695 26.3873C9.60257 26.3157 10.7997 24.9293 12.2122 22.2285C12.9544 20.6988 14.1035 18.4041 15.6598 15.3448C16.9525 19.8623 18.7242 23.2563 20.9508 25.5269C21.5733 26.1723 22.2197 26.4591 22.8422 26.4113C23.3929 26.3635 23.8238 26.0767 24.1111 25.5508C24.3506 25.0967 24.4463 24.5709 24.3984 23.9733C24.2548 21.7983 24.4703 18.7628 25.0688 14.8668C25.6912 10.8515 26.4574 7.9593 27.3911 6.23838C27.5827 5.87984 27.6545 5.52134 27.6305 5.0911C27.5827 4.54136 27.3432 4.08724 26.8883 3.72871C26.4335 3.37019 25.9307 3.20287 25.38 3.25068C24.6857 3.2985 24.159 3.63312 23.7998 4.30236C22.3154 7.00339 21.2619 11.3772 20.6394 17.4483C19.7296 15.1538 18.9635 12.453 18.3649 9.27401C18.1016 7.8638 17.4552 7.19456 16.4017 7.26626C15.6834 7.31406 15.0849 7.79209 14.6061 8.70036L9.36284 18.6673C8.50082 15.2014 7.6868 10.971 6.94461 5.97544C6.77701 4.73255 6.08269 4.15891 4.86166 4.25452ZM50.9748 5.97528C52.6746 6.33381 53.9435 7.24217 54.8054 8.74797C55.5715 10.0388 55.9785 11.5923 55.9546 13.4566C55.9546 15.9183 55.3321 18.1652 54.0871 20.2207C52.6506 22.6109 50.7831 23.806 48.4609 23.806C48.0538 23.806 47.6229 23.7582 47.168 23.6626C45.4682 23.3041 44.1993 22.3957 43.3374 20.8899C42.5712 19.5752 42.1882 17.9978 42.1882 16.1574C42.1882 13.6956 42.8107 11.4488 44.0557 9.41717C45.5161 7.02696 47.3835 5.83187 49.6819 5.83187C50.0889 5.83187 50.5199 5.87967 50.9748 5.97528ZM49.9692 18.9063C50.855 18.1173 51.4536 16.9462 51.7888 15.3687C51.9085 14.819 51.9564 14.2215 51.9564 13.6001C51.9564 12.9069 51.8128 12.166 51.5254 11.425C51.1663 10.4929 50.6875 9.99092 50.1129 9.87141C49.2509 9.70408 48.4129 10.1821 47.6229 11.3533C46.9765 12.2616 46.5694 13.2177 46.354 14.1977C46.2343 14.7474 46.1864 15.3449 46.1864 15.9425C46.1864 16.6356 46.33 17.3766 46.6173 18.1175C46.9764 19.0497 47.4553 19.5516 48.0299 19.6711C48.6285 19.7906 49.2749 19.5277 49.9692 18.9063ZM35.9871 5.97528C37.6629 6.33381 38.9558 7.24217 39.8177 8.74797C40.5839 10.0388 40.9669 11.5923 40.9669 13.4566C40.9669 15.9183 40.3444 18.1652 39.0994 20.2207C37.6629 22.6109 35.7955 23.806 33.4732 23.806C33.0662 23.806 32.6352 23.7582 32.1803 23.6626C30.4805 23.3041 29.2116 22.3957 28.3497 20.8899C27.5836 19.5752 27.2005 17.9978 27.2005 16.1574C27.2005 13.6956 27.823 11.4488 29.068 9.41717C30.5284 7.02696 32.3958 5.83187 34.6942 5.83187C35.1013 5.83187 35.5322 5.87967 35.9871 5.97528ZM34.9576 18.9063C35.8434 18.1173 36.442 16.9462 36.7772 15.3687C36.8969 14.819 36.9687 14.2215 36.9448 13.6001C36.9448 12.9069 36.8011 12.166 36.5138 11.425C36.1547 10.4929 35.6759 9.99092 35.1013 9.87141C34.2393 9.70408 33.4013 10.1821 32.6113 11.3533C31.9648 12.2616 31.5578 13.2177 31.3423 14.1977C31.2226 14.7474 31.1748 15.3449 31.1748 15.9425C31.1748 16.6356 31.3184 17.3766 31.6057 18.1175C31.9648 19.0497 32.4437 19.5516 33.0183 19.6711C33.6168 19.7906 34.2633 19.5277 34.9576 18.9063Z" fill="#6A4595"/>
<path fill-rule="evenodd" clip-rule="evenodd" d="M90.0236 14.9991C90.0236 19.7448 87.7509 23.5919 82.8186 23.5919C77.5478 23.5919 75.6136 19.7448 75.6136 14.9991C75.6136 10.2534 77.4995 6.40625 82.8186 6.40625C87.9443 6.40625 90.0236 10.2534 90.0236 14.9991ZM85.3811 14.9995C85.3811 17.719 84.5727 19.9235 82.8183 19.9235C80.9434 19.9235 80.2554 17.719 80.2554 14.9995C80.2554 12.2801 80.9262 10.0755 82.8183 10.0755C84.6415 10.0755 85.3811 12.2801 85.3811 14.9995ZM74.5988 6.696V10.6545C74.2603 10.397 73.1288 9.97866 71.3106 10.3649C69.4925 10.7511 68.6188 12.5855 68.4093 13.4544C68.2481 14.2751 68.0708 16.1868 68.6511 17.2681C69.3764 18.6198 70.5369 20.599 74.5988 19.3439V23.2541C72.7613 23.8173 68.39 24.152 65.6047 20.9852C62.8194 17.8184 63.3803 13.3901 64.009 11.5717C64.8471 9.36719 68.1385 5.3057 74.5988 6.696ZM90.3156 23.2541L92.4433 6.79253H98.0042L99.9384 15.9164L101.873 6.79253H107.579L109.851 23.2541H105.403L104.387 12.1027L101.534 23.2541H98.5845L95.7798 12.1027L94.5226 23.2541H90.3156ZM140.17 10.3648V6.88908H131.176V23.2058H140.17V19.8266H135.625V16.7853H139.493V13.4061H135.625V10.3648H140.17ZM141.476 23.2058V6.88908H147.327C149.3 6.88908 150.857 7.69365 151.389 8.09594C152.017 8.41777 153.284 9.62141 153.323 11.8613C153.362 14.1013 151.598 15.4015 150.712 15.7716L154.242 23.2058H149.455L145.828 15.7716V23.2058H141.476ZM145.827 13.8887V10.0267C147.104 9.87227 147.939 10.3164 148.245 10.606C148.471 10.8313 148.97 11.3784 148.777 12.537C148.621 13.4709 147.423 13.8887 146.746 13.8887H145.827ZM174.936 6.88902V10.3648H170.39V13.4061H174.259V16.7853H170.39V19.8266H174.936V23.2058H165.942V6.88902H174.936ZM112.559 6.79253L110.431 23.2541H114.638L115.895 12.1027L118.7 23.2541H121.65L124.503 12.1027L125.518 23.2541H129.967L127.694 6.79253H121.988L120.054 15.9164L118.12 6.79253H112.559ZM164.665 10.6545V6.696C158.205 5.3057 154.913 9.36719 154.075 11.5717C153.447 13.3901 152.886 17.8184 155.671 20.9852C158.456 24.152 162.827 23.8173 164.665 23.2541V19.3439C160.603 20.599 159.443 18.6198 158.717 17.2681C158.137 16.1868 158.314 14.2751 158.475 13.4544C158.685 12.5855 159.559 10.7511 161.377 10.3649C163.195 9.97866 164.326 10.397 164.665 10.6545Z" fill="#848484"/>
</svg>
