<svg width="48" height="23" viewBox="0 0 48 23" fill="none" xmlns="http://www.w3.org/2000/svg">
<path d="M13.8265 0H33.9667C35.2412 0 36.2731 1.03002 36.2731 2.30252V9.97744C36.2731 11.2498 35.2413 12.28 33.9667 12.28H26.7442L27.7356 14.7036L23.3757 12.28H13.8367C12.5622 12.28 11.5303 11.2499 11.5303 9.97744V2.30252C11.5202 1.04015 12.552 0 13.8265 0Z" fill="#6A4595"/>
<path d="M12.9392 2.09841C13.08 1.90763 13.2912 1.80722 13.5728 1.78714C14.0858 1.74697 14.3775 1.98796 14.4479 2.5101C14.7597 4.60873 15.1016 6.38596 15.4638 7.84198L17.6665 3.65484C17.8676 3.27328 18.1191 3.07246 18.4208 3.05238C18.8634 3.02225 19.1349 3.3034 19.2456 3.89583C19.497 5.23134 19.8189 6.36595 20.2011 7.32987C20.4626 4.77938 20.9051 2.94194 21.5288 1.80723C21.6796 1.52609 21.9009 1.38551 22.1926 1.36542C22.4239 1.34534 22.6352 1.41563 22.8263 1.56624C23.0174 1.71686 23.1179 1.90764 23.1381 2.13859C23.1481 2.31933 23.1179 2.46994 23.0375 2.62056C22.6452 3.34352 22.3234 4.55854 22.0619 6.24536C21.8104 7.8821 21.7199 9.1573 21.7803 10.071C21.8004 10.3221 21.7601 10.543 21.6596 10.7338C21.5389 10.9547 21.3578 11.0752 21.1265 11.0952C20.865 11.1153 20.5934 10.9948 20.3319 10.7237C19.3965 9.76981 18.6522 8.34401 18.1091 6.44617C17.4553 7.7314 16.9726 8.69542 16.6608 9.33804C16.0674 10.4727 15.5645 11.0551 15.142 11.0852C14.8704 11.1052 14.6391 10.8743 14.4379 10.3923C13.925 9.07689 13.3718 6.53653 12.7783 2.77115C12.7381 2.51008 12.7985 2.27913 12.9393 2.09839L12.9392 2.09841ZM34.5543 3.67485C34.1922 3.04225 33.6591 2.66065 32.945 2.51003C32.7539 2.46987 32.5729 2.44978 32.4019 2.44978C31.4363 2.44978 30.6518 2.95184 30.0383 3.95598C29.5153 4.80947 29.2538 5.75337 29.2538 6.78754C29.2538 7.56071 29.4147 8.22339 29.7365 8.77569C30.0986 9.40829 30.6317 9.78989 31.3458 9.94051C31.5369 9.98067 31.7179 10.0008 31.8889 10.0008C32.8645 10.0008 33.649 9.49869 34.2525 8.49456C34.7755 7.63103 35.037 6.68713 35.037 5.65296C35.0471 4.86975 34.8761 4.21711 34.5543 3.67485ZM33.287 6.45623C33.1462 7.11895 32.8947 7.61092 32.5226 7.94236C32.2309 8.20343 31.9593 8.31388 31.7079 8.26368C31.4665 8.21347 31.2653 8.0026 31.1144 7.611C30.9937 7.29973 30.9334 6.98846 30.9334 6.69726C30.9334 6.44624 30.9535 6.1952 31.0038 5.96427C31.0943 5.55258 31.2653 5.15093 31.5369 4.76935C31.8688 4.27733 32.2208 4.07651 32.5829 4.1468C32.8243 4.19701 33.0255 4.40787 33.1764 4.79947C33.297 5.11074 33.3574 5.42202 33.3574 5.71321C33.3574 5.97428 33.3373 6.22529 33.287 6.45623ZM28.2579 3.67485C27.8958 3.04225 27.3527 2.66065 26.6487 2.51003C26.4576 2.46987 26.2765 2.44978 26.1055 2.44978C25.14 2.44978 24.3555 2.95184 23.7419 3.95598C23.2189 4.80947 22.9574 5.75337 22.9574 6.78754C22.9574 7.56071 23.1183 8.22339 23.4402 8.77569C23.8023 9.40829 24.3353 9.78989 25.0494 9.94051C25.2405 9.98067 25.4216 10.0008 25.5926 10.0008C26.5682 10.0008 27.3527 9.49869 27.9562 8.49456C28.4792 7.63103 28.7407 6.68713 28.7407 5.65296C28.7407 4.86975 28.5798 4.21711 28.2579 3.67485ZM26.9806 6.45623C26.8398 7.11895 26.5883 7.61092 26.2162 7.94236C25.9245 8.20343 25.6529 8.31388 25.4015 8.26368C25.1601 8.21347 24.9589 8.0026 24.808 7.611C24.6873 7.29973 24.627 6.98846 24.627 6.69726C24.627 6.44624 24.6471 6.1952 24.6974 5.96427C24.7879 5.55258 24.9589 5.15093 25.2305 4.76935C25.5624 4.27733 25.9144 4.07651 26.2765 4.1468C26.5179 4.19701 26.7191 4.40787 26.8699 4.79947C26.9906 5.11074 27.051 5.42202 27.051 5.71321C27.0611 5.97428 27.0309 6.22529 26.9806 6.45623Z" fill="white"/>
<path fill-rule="evenodd" clip-rule="evenodd" d="M12.0306 19.3135C12.0306 21.3072 11.0758 22.9234 9.00373 22.9234C6.78947 22.9234 5.9769 21.3072 5.9769 19.3135C5.9769 17.3198 6.76916 15.7036 9.00373 15.7036C11.157 15.7036 12.0306 17.3198 12.0306 19.3135ZM10.0803 19.3136C10.0803 20.456 9.74064 21.3822 9.00359 21.3822C8.21597 21.3822 7.92694 20.456 7.92694 19.3136C7.92694 18.1711 8.20875 17.245 9.00359 17.245C9.76954 17.245 10.0803 18.1711 10.0803 19.3136ZM43.3875 17.4883V15.8254C40.6735 15.2413 39.2908 16.9475 38.9387 17.8737C38.6746 18.6376 38.439 20.4979 39.6091 21.8283C40.7792 23.1587 42.6156 23.0181 43.3875 22.7815V21.1388C41.6811 21.6661 41.1936 20.8346 40.8889 20.2667C40.6451 19.8125 40.7196 19.0094 40.7873 18.6646C40.8753 18.2996 41.2423 17.5289 42.0062 17.3667C42.77 17.2044 43.2453 17.3802 43.3875 17.4883ZM5.55071 15.8256V17.4885C5.40851 17.3804 4.93316 17.2046 4.16934 17.3668C3.40552 17.5291 3.03851 18.2997 2.95048 18.6648C2.88277 19.0095 2.80828 19.8126 3.05205 20.2669C3.35677 20.8348 3.8443 21.6662 5.55071 21.139V22.7816C4.77877 23.0182 2.94237 23.1589 1.77227 21.8285C0.602164 20.4981 0.83781 18.6377 1.1019 17.8738C1.454 16.9477 2.8367 15.2415 5.55071 15.8256ZM12.1533 22.7814L13.0471 15.8659H15.3833L16.1959 19.6988L17.0084 15.8659H19.4055L20.3603 22.7814H18.4914L18.0648 18.0967L16.8662 22.7814H15.6271L14.4488 18.0967L13.9207 22.7814H12.1533ZM33.0974 17.3666V15.9064H29.3189V22.7611H33.0974V21.3415H31.1878V20.0639H32.813V18.6443H31.1878V17.3666H33.0974ZM33.6459 22.7611V15.9064H36.1039C36.9327 15.9064 37.5868 16.2444 37.8103 16.4134C38.0744 16.5486 38.6066 17.0543 38.6229 17.9953C38.6391 18.9363 37.8983 19.4825 37.5259 19.638L39.0088 22.7611H36.9977L35.4741 19.638V22.7611H33.6459ZM35.4739 18.8471V17.2247C36.0102 17.1598 36.361 17.3464 36.4896 17.4681C36.5844 17.5627 36.7943 17.7926 36.7131 18.2793C36.6476 18.6716 36.1443 18.8471 35.8599 18.8471H35.4739ZM47.7024 15.9063V17.3665H45.7928V18.6442H47.418V20.0638H45.7928V21.3414H47.7024V22.761H43.9239V15.9063H47.7024ZM21.4976 15.8659L20.6038 22.7814H22.3711L22.8993 18.0967L24.0775 22.7814H25.3167L26.5152 18.0967L26.9418 22.7814H28.8107L27.856 15.8659H25.4589L24.6463 19.6988L23.8337 15.8659H21.4976Z" fill="black"/>
</svg>
