<svg width="33" height="33" viewBox="0 0 33 33" fill="none" xmlns="http://www.w3.org/2000/svg">
<path d="M0 32.7839C0.0824938 32.4783 0.16093 32.1889 0.240719 31.8981C0.916898 29.426 1.59443 26.9539 2.2679 24.4818C2.28413 24.4223 2.27737 24.3384 2.24762 24.2857C1.13057 22.3059 0.423288 20.1881 0.223139 17.9242C-0.239367 12.6865 1.40375 8.19941 5.1633 4.52506C7.50964 2.23146 10.3401 0.823656 13.5723 0.250256C18.645 -0.650414 23.8177 0.908854 27.5516 4.46285C29.9939 6.78755 31.5762 9.60046 32.2794 12.9016C33.4086 18.2123 31.7899 23.7556 27.9613 27.6382C25.5285 30.1063 22.6033 31.6682 19.1873 32.2619C15.5142 32.9002 12.0198 32.3268 8.71865 30.5904C8.64021 30.5485 8.57124 30.5404 8.48604 30.5633C5.69613 31.2977 2.90622 32.0293 0.11495 32.7609C0.0824936 32.769 0.0486849 32.7745 0 32.7839ZM3.9029 28.9256C3.95429 28.9148 3.9881 28.9081 4.02056 28.8999C5.49733 28.5132 6.97411 28.125 8.45088 27.7383C8.63345 27.6909 8.82413 27.5909 8.99588 27.6152C9.17304 27.6409 9.33262 27.7883 9.49761 27.8843C12.1225 29.4152 14.9476 30.0156 17.9647 29.6708C20.2245 29.4125 22.2841 28.6078 24.145 27.3001C28.9215 23.9436 31.0041 17.8647 29.2894 12.2849C27.2203 5.54879 20.3084 1.52688 13.4249 3.07939C5.83542 4.79012 1.10217 12.6108 3.50125 20.3274C3.89209 21.585 4.4763 22.7508 5.19981 23.8475C5.24715 23.9206 5.25391 23.9828 5.23227 24.0666C4.81034 25.5988 4.39111 27.1324 3.97052 28.666C3.94753 28.7471 3.92725 28.8283 3.9029 28.9256Z" fill="#035731"/>
<path d="M11.0737 8.76649C11.2428 8.76649 11.4118 8.76649 11.5795 8.76649C11.7783 8.76649 11.946 8.84493 12.0555 9.00451C12.1637 9.16138 12.2611 9.33042 12.3355 9.50623C12.7304 10.4434 13.0941 11.3928 13.5134 12.3191C13.7014 12.7357 13.7014 13.0886 13.466 13.4727C13.224 13.8676 12.921 14.2124 12.61 14.5492C12.2449 14.9441 12.2178 15.0834 12.4937 15.5391C13.5066 17.2079 14.8089 18.59 16.5264 19.5448C17.0268 19.822 17.5529 20.0519 18.0749 20.2886C18.3927 20.4319 18.6077 20.3765 18.8281 20.1074C19.2663 19.5732 19.6991 19.0349 20.1278 18.4926C20.3184 18.2519 20.5024 18.1654 20.7945 18.2654C21.0974 18.3696 21.3949 18.4967 21.6857 18.6346C22.5147 19.0295 23.3342 19.4474 24.1672 19.8315C24.5202 19.9938 24.6554 20.2318 24.627 20.6091C24.5878 21.1257 24.4905 21.6288 24.3052 22.1116C24.2038 22.3766 24.028 22.5957 23.821 22.785C23.1611 23.3922 22.4119 23.8426 21.518 23.994C20.574 24.1536 19.6517 24.0508 18.7443 23.7384C17.5921 23.3408 16.4507 22.923 15.3972 22.2982C13.9664 21.4489 12.7263 20.3684 11.6093 19.1431C10.668 18.1099 9.82008 17.0051 9.10333 15.8028C8.66111 15.059 8.32573 14.2665 8.1932 13.4051C7.97412 11.9837 8.28245 10.6977 9.23722 9.59413C9.34811 9.46701 9.46171 9.34124 9.57937 9.22088C9.885 8.90984 10.2528 8.73944 10.6951 8.74891C10.8208 8.75161 10.9466 8.74891 11.0724 8.74891C11.0737 8.75567 11.0737 8.76108 11.0737 8.76649Z" fill="#035731"/>
</svg>
