<svg width="31" height="31" viewBox="0 0 31 31" fill="none" xmlns="http://www.w3.org/2000/svg">
<path d="M15.6904 29.3903C13.2378 29.3903 10.8235 28.7197 8.6967 27.4551L8.12187 27.1102L2.98678 28.4898L4.35678 23.3834L4.0023 22.799C2.68979 20.6434 2 18.1909 2 15.7C2 8.14103 8.15061 2 15.7 2C23.2493 2 29.3999 8.15061 29.3999 15.7C29.3999 23.2493 23.2493 29.3999 15.7 29.3999L15.6904 29.3903Z" stroke="#405789" stroke-width="2.5" stroke-linecap="round" stroke-linejoin="round"/>
<path d="M21.2297 17.4627C20.6166 17.089 19.8118 16.6867 19.0837 16.9836C18.528 17.2136 18.1736 18.0854 17.8095 18.5261C17.6275 18.756 17.4071 18.7943 17.1197 18.6794C15.0312 17.8459 13.4313 16.4471 12.272 14.5311C12.0804 14.2341 12.1092 13.9946 12.3487 13.7167C12.6936 13.3048 13.1343 12.8449 13.2301 12.2893C13.3259 11.7336 13.0672 11.0917 12.8373 10.5935C12.5499 9.96122 12.2146 9.07024 11.5918 8.71577C11.017 8.39003 10.2506 8.57206 9.73323 8.9936C8.84225 9.72171 8.41114 10.8522 8.4303 11.9827C8.4303 12.2988 8.46862 12.6246 8.54526 12.9311C8.72729 13.6784 9.07219 14.3682 9.4554 15.0292C9.74281 15.5274 10.059 16.0064 10.4039 16.4759C11.5248 17.9992 12.9139 19.3117 14.5234 20.2985C15.3282 20.7871 16.1904 21.2278 17.091 21.5248C18.0969 21.8601 18.9975 22.205 20.0801 21.9942C21.2201 21.7738 22.341 21.0745 22.7913 19.9727C22.9254 19.647 22.9925 19.2829 22.9159 18.9476C22.7626 18.2387 21.8045 17.8171 21.2297 17.4722V17.4627Z" fill="#405789"/>
</svg>
