<svg width="27" height="27" viewBox="0 0 27 27" fill="none" xmlns="http://www.w3.org/2000/svg">
<path d="M26.1501 24.7172C26.5346 25.1017 26.5346 25.7252 26.1501 26.1097C25.7655 26.4943 25.1421 26.4943 24.7575 26.1097L20.0312 21.3833C19.6466 20.9988 19.6466 20.3753 20.0312 19.9908C20.4157 19.6063 21.0391 19.6063 21.4237 19.9908L26.1501 24.7172ZM11.2746 21.6717C5.51021 21.6717 0.837219 16.9987 0.837219 11.2343C0.837219 5.46987 5.51021 0.796875 11.2746 0.796875C17.0391 0.796875 21.7121 5.46987 21.7121 11.2343C21.7121 16.9987 17.0391 21.6717 11.2746 21.6717ZM11.2746 19.7024C15.9515 19.7024 19.7428 15.9111 19.7428 11.2343C19.7428 6.5575 15.9515 2.7662 11.2746 2.7662C6.59784 2.7662 2.80655 6.5575 2.80655 11.2343C2.80655 15.9111 6.59784 19.7024 11.2746 19.7024Z" fill="#D7E5FF"/>
</svg>
