<svg width="17" height="21" viewBox="0 0 17 21" fill="none" xmlns="http://www.w3.org/2000/svg">
<path fill-rule="evenodd" clip-rule="evenodd" d="M2.58594 0V2.29813L5.67765 3.73447H8.47431H8.4749H11.2716L14.3633 2.29813V0H8.4749H8.47431H2.58594Z" fill="#F4CC45"/>
<circle cx="8.33073" cy="12.6432" r="8.33073" fill="#F4CC45"/>
<path d="M8.33248 18.96C7.50254 18.96 6.68073 18.7966 5.91397 18.479C5.14721 18.1614 4.45051 17.6959 3.86366 17.109C3.2768 16.5221 2.81128 15.8254 2.49368 15.0587C2.17608 14.2919 2.01261 13.4701 2.01261 12.6402C2.01261 11.8102 2.17608 10.9884 2.49368 10.2217C2.81128 9.45491 3.2768 8.75821 3.86366 8.17136C4.45051 7.5845 5.14721 7.11899 5.91397 6.80138C6.68073 6.48378 7.50254 6.32031 8.33248 6.32031L8.33248 12.6402L8.33248 18.96Z" fill="#E3B73D"/>
<path d="M7.327 13.0743L5.6034 11.3507L5.45977 11.2071L4.02344 12.6434L7.47064 16.0906L12.6414 10.9198L11.0615 9.33984L7.327 13.0743Z" fill="white"/>
</svg>
