<?xml version="1.0" encoding="UTF-8"?><svg id="a" xmlns="http://www.w3.org/2000/svg" viewBox="0 0 568.38 392.85"><defs><style>.b{fill:#fff;}.c{fill:#ffe600;}.d{fill:#2d3277;}</style></defs><path class="d" d="M568.38,185.68C568.38,83.58,441.21,0,284.19,0S0,83.58,0,185.68v10.75c0,108.66,111.05,196.42,284.19,196.42s284.19-87.76,284.19-196.42v-10.75Z"/><path class="c" d="M558.23,185.68c0,96.12-122.39,174.33-272.84,174.33S12.54,281.8,12.54,185.68,134.93,11.34,285.38,11.34s272.84,78.21,272.84,174.33Z"/><g><path class="b" d="M194.63,130.75s-2.99,2.99-1.19,5.37c4.18,5.37,17.31,8.36,31.05,5.37,7.76-1.79,18.51-10.15,28.06-17.91,10.75-8.36,21.49-17.31,32.24-20.3,11.34-3.58,18.51-1.79,23.28-.6,5.37,1.79,11.34,5.37,21.49,12.54,18.51,13.73,93.73,79.41,106.87,90.75,10.15-4.78,56.72-24.48,120-38.81-5.37-33.43-25.67-64.48-56.72-89.55-42.99,17.91-96.12,27.46-148.06,2.39,0,0-28.06-13.13-56.12-12.54-41.2,1.19-58.51,18.51-77.61,37.61l-23.28,25.67Z"/><path class="b" d="M433.45,213.14c-.6-.6-88.36-77.02-108.06-91.94-11.34-8.36-17.91-10.75-24.48-11.94-3.58-.6-8.36,0-11.94,1.19-8.96,2.39-21.49,10.75-32.24,19.1-11.34,8.96-21.49,17.31-31.05,19.1-12.54,2.99-27.46-.6-34.03-5.37-2.99-1.79-4.78-4.18-5.97-6.57-2.39-5.97,2.39-10.75,2.99-11.34l23.88-26.27,8.36-8.36c-7.76,1.19-14.93,2.99-22.09,4.78-8.96,2.39-17.31,4.78-25.67,4.78-3.58,0-22.69-2.99-26.27-4.18-22.09-5.97-41.2-11.94-69.85-25.08-34.03,25.67-57.32,57.32-63.88,92.54,4.78,1.19,13.13,3.58,16.12,4.18,77.61,17.31,101.5,35.23,106.27,38.81,4.78-5.37,11.34-8.36,19.1-8.36,8.36,0,16.12,4.18,20.9,10.75,4.18-3.58,10.75-6.57,18.51-6.57,3.58,0,7.16,.6,11.34,1.79,8.96,2.99,13.13,8.96,15.52,14.33,2.99-1.19,6.57-2.39,10.75-2.39s8.36,1.19,13.13,2.99c14.33,5.97,16.72,20.3,15.52,31.05h2.99c17.31,0,31.05,13.73,31.05,31.05,0,5.37-1.19,10.15-3.58,14.33,4.78,2.39,16.12,8.36,26.87,7.16,8.36-1.19,11.34-3.58,12.54-5.37,.6-1.19,1.79-2.39,.6-3.58l-22.09-24.48s-3.58-3.58-2.39-4.78,3.58,.6,5.37,1.79c11.34,9.55,24.48,23.28,24.48,23.28,0,0,1.19,1.79,5.97,2.99,4.18,.6,11.94,0,17.31-4.18,1.19-1.19,2.99-2.39,3.58-3.58,5.37-7.16-.6-14.33-.6-14.33l-25.67-28.66s-3.58-3.58-2.39-4.78,3.58,.6,5.37,1.79c8.36,6.57,19.7,18.51,30.45,29.25,2.39,1.79,11.94,7.76,24.48-.6,7.76-5.37,9.55-11.34,8.96-16.12-.6-5.97-5.37-10.75-5.37-10.75l-34.63-35.23s-3.58-2.99-2.39-4.78c1.19-1.19,3.58,.6,5.37,1.79,11.34,9.55,41.2,37.02,41.2,37.02,.6,0,10.75,7.76,23.88-.6,4.78-2.99,7.76-7.16,7.76-12.54,.6-7.76-5.97-13.13-5.97-13.13Z"/><path class="b" d="M264.49,257.92c-5.37,0-11.34,2.99-11.94,2.99s0-2.39,.6-3.58,7.76-22.69-9.55-30.45c-13.13-5.97-21.49,.6-23.88,3.58-.6,.6-1.19,.6-1.19,0,0-3.58-1.79-14.33-13.73-17.91-16.72-5.37-26.87,6.57-29.85,10.75-1.19-9.55-8.96-16.72-19.1-16.72-10.75,0-19.1,8.36-19.1,19.1s8.36,19.1,19.1,19.1c5.37,0,9.55-1.79,13.13-5.37v.6c-.6,4.78-2.39,22.09,15.52,28.66,7.16,2.99,13.13,.6,18.51-2.99,1.79-1.19,1.79-.6,1.79,.6-.6,4.18,0,13.73,13.73,19.1,10.15,4.18,16.12,0,19.7-3.58,1.79-1.79,2.39-1.19,2.39,1.19,.6,12.54,11.34,22.69,23.88,22.69s23.88-10.75,23.88-23.88-10.75-23.88-23.88-23.88h0Z"/></g><path class="d" d="M437.03,204.19c-26.87-23.28-88.96-77.61-106.27-90.15-9.55-7.16-16.12-11.34-22.09-12.54-2.39-.6-5.97-1.79-10.75-1.79-4.18,0-8.96,.6-13.73,2.39-10.75,3.58-21.49,11.94-32.24,20.3l-.6,.6c-9.55,7.76-19.7,15.52-27.46,17.31-3.58,.6-6.57,1.19-10.15,1.19-8.36,0-16.12-2.39-19.1-5.97-.6-.6,0-1.79,1.19-2.99l23.88-25.67c18.51-18.51,35.82-35.82,76.42-37.02h1.79c25.08,0,50.15,11.34,53.14,12.54,23.88,11.34,47.76,17.31,72.24,17.31s51.94-6.57,79.41-19.1c-2.99-2.39-6.57-5.37-9.55-7.76-24.48,10.75-47.17,15.52-69.85,15.52s-45.37-5.37-67.47-16.12c-1.19-.6-28.66-13.73-57.91-13.73h-2.39c-34.03,.6-53.14,12.54-65.67,23.28-12.54,0-23.28,3.58-32.84,5.97-8.36,2.39-16.12,4.18-23.28,4.18h-8.96c-8.36,0-50.15-10.15-82.99-23.28-3.58,2.39-6.57,4.78-10.15,7.16,34.63,14.33,77.02,25.08,90.15,26.27,3.58,0,7.76,.6,11.94,.6,8.96,0,17.31-2.39,26.27-4.78,5.37-1.19,10.75-2.99,16.12-4.18l-4.78,4.78-23.88,26.27c-1.79,1.79-5.97,7.16-3.58,13.13,1.19,2.39,3.58,4.78,6.57,7.16,5.97,3.58,16.12,6.57,25.67,6.57,3.58,0,7.16-.6,10.15-1.19,10.15-2.39,20.9-10.75,31.64-19.7,8.96-7.16,21.49-16.12,31.05-19.1,2.99-.6,5.97-1.19,8.96-1.19h2.39c6.57,.6,12.54,2.99,23.88,11.34,19.7,14.93,107.47,91.35,108.06,91.94,0,0,5.37,4.78,5.37,13.13,0,4.18-2.99,8.36-7.16,11.34-3.58,2.39-7.76,3.58-11.34,3.58-5.97,0-10.15-2.99-10.15-2.99,0,0-30.45-27.46-41.2-37.02-1.79-1.79-3.58-2.99-5.37-2.99-1.19,0-1.79,.6-2.39,1.19-1.79,2.39,0,5.37,2.39,7.16l35.23,35.23s4.18,4.18,4.78,9.55c0,5.97-2.39,10.75-8.36,14.33-4.18,2.99-8.36,4.18-12.54,4.18-5.37,0-8.96-2.39-10.15-2.99l-5.37-4.78c-8.96-8.96-18.51-18.51-25.67-23.88-1.79-1.19-3.58-2.99-5.37-2.99-.6,0-1.79,0-2.39,1.19-.6,.6-1.19,2.39,.6,5.37,.6,1.19,1.79,1.79,1.79,1.79l25.67,28.66s5.37,6.57,.6,11.94l-1.19,1.19-2.39,2.39c-4.18,3.58-10.15,4.18-12.54,4.18h-3.58c-2.39-.6-4.18-1.19-5.37-2.39-1.19-1.79-14.33-14.33-25.08-23.28-1.19-1.19-2.99-2.39-4.78-2.39-.6,0-1.79,.6-2.39,1.19-1.79,2.39,1.19,5.97,2.39,7.16l22.09,23.88s0,.6-.6,1.79-3.58,3.58-11.34,4.78h-2.99c-8.36,0-16.72-4.18-21.49-6.57,1.79-4.18,2.99-8.96,2.99-13.73,0-17.91-14.33-32.24-32.24-32.24h-1.19c.6-8.36-.6-23.88-16.72-30.45-4.78-1.79-8.96-2.99-13.73-2.99-3.58,0-6.57,.6-10.15,1.79-3.58-6.57-8.96-11.34-16.12-13.73-4.18-1.19-7.76-1.79-11.94-1.79-6.57,0-12.54,1.79-17.91,5.97-5.25-6.47-13.16-10.2-21.49-10.15-7.16,0-14.33,2.99-19.1,7.76-6.57-5.37-33.43-22.09-105.67-38.81-3.58-.6-11.34-2.99-16.12-4.78-.6,3.58-1.19,7.76-1.79,11.94,0,0,13.13,2.99,16.12,3.58,73.44,16.12,97.91,33.43,102.09,36.42-1.19,3.58-1.79,7.16-1.79,10.75,0,15.52,12.54,27.46,27.46,27.46,1.79,0,3.58,0,5.37-.6,2.39,11.34,9.55,19.7,20.9,23.88,3.58,1.19,6.57,1.79,9.55,1.79,1.79,0,4.18,0,6.57-.6,1.79,5.37,6.57,11.94,17.31,16.12,3.58,1.79,7.16,2.39,10.75,2.39,2.99,0,5.97-.6,8.36-1.79,4.78,11.94,16.72,20.3,29.85,20.3,8.96,0,17.31-3.58,23.28-10.15,5.37,2.99,16.12,8.36,27.46,8.36h4.18c11.34-1.19,16.12-5.97,18.51-8.96,.6-.6,.6-1.19,1.19-1.79,2.39,.6,5.37,1.19,8.96,1.19,5.97,0,11.94-1.79,17.91-6.57,5.97-4.18,10.15-10.15,10.15-15.52,1.79,.6,4.18,.6,5.97,.6,5.97,0,12.54-1.79,18.51-5.97,11.34-7.16,13.13-17.31,13.13-23.28,1.79,.6,4.18,.6,5.97,.6,5.97,0,11.94-1.79,17.31-5.37,7.16-4.78,11.34-11.34,11.94-19.1,.6-5.37-1.19-10.75-3.58-15.52,19.1-8.36,62.09-23.88,113.44-35.82,0-4.18-.6-7.76-1.79-11.94-61.49,13.13-107.47,32.84-118.81,38.21h0Zm-172.54,99.71c-11.94,0-21.49-9.55-22.09-21.49,0-1.19,0-3.58-2.39-3.58-1.19,0-1.79,.6-2.99,1.19-2.39,2.39-5.97,4.78-10.75,4.78-2.39,0-4.78-.6-7.16-1.79-12.54-5.37-13.13-13.73-12.54-17.31,0-1.19,0-1.79-.6-2.39l-.6-.6h-.6c-.6,0-1.19,0-2.39,1.19-3.58,2.39-7.16,3.58-10.75,3.58-1.79,0-4.18-.6-5.97-1.19-16.72-6.57-15.52-22.09-14.33-26.87,0-1.19,0-1.79-.6-2.39l-1.19-1.19-1.19,1.19c-3.58,2.99-7.76,4.78-11.94,4.78-9.55,0-17.31-7.76-17.31-17.31s7.76-17.31,17.31-17.31c8.36,0,16.12,6.57,17.31,14.93l.6,4.78,2.39-4.18c0-.6,7.16-11.34,20.3-10.75,2.39,0,4.78,.6,7.76,1.19,10.15,2.99,11.94,12.54,11.94,16.12,0,2.39,1.79,2.39,1.79,2.39,.6,0,1.79-.6,1.79-1.19,1.79-1.79,5.97-5.37,12.54-5.37,2.99,0,5.97,.6,9.55,2.39,16.12,7.16,8.96,27.46,8.96,28.06-1.19,3.58-1.79,4.78,0,5.97h1.19c.6,0,1.79,0,2.99-.6,2.39-.6,5.37-1.79,8.36-1.79,11.94,0,22.09,10.15,22.09,22.09,.6,13.13-9.55,22.69-21.49,22.69h0Z"/></svg>