<svg width="21" height="27" viewBox="0 0 21 27" fill="none" xmlns="http://www.w3.org/2000/svg">
<path fill-rule="evenodd" clip-rule="evenodd" d="M3.20605 0V2.84931L7.03927 4.63013H10.5072H10.5074H13.9754L17.8086 2.84931V0H10.5074H10.5072H3.20605Z" fill="#F4CC45"/>
<circle cx="10.3288" cy="15.6725" r="10.3288" fill="#F4CC45"/>
<path d="M10.3284 23.5072C9.29946 23.5072 8.28055 23.3045 7.32989 22.9107C6.37923 22.5169 5.51544 21.9398 4.78783 21.2122C4.06023 20.4846 3.48306 19.6208 3.08929 18.6701C2.69551 17.7194 2.49284 16.7005 2.49284 15.6715C2.49284 14.6426 2.69551 13.6236 3.08929 12.673C3.48306 11.7223 4.06023 10.8585 4.78784 10.1309C5.51544 9.40333 6.37923 8.82616 7.32989 8.43239C8.28055 8.03861 9.29946 7.83594 10.3285 7.83594L10.3284 15.6715L10.3284 23.5072Z" fill="#E3B73D"/>
<path d="M9.08124 16.2083L6.94425 14.0713L6.76617 13.8932L4.98535 15.674L9.25932 19.948L15.6703 13.537L13.7114 11.5781L9.08124 16.2083Z" fill="white"/>
</svg>
