<svg width="38" height="27" viewBox="0 0 38 27" fill="none" xmlns="http://www.w3.org/2000/svg">
<path d="M38 12.4189C38 5.5901 29.4978 0 19 0C8.50216 0 0 5.5901 0 12.4189V13.1379C0 20.4054 7.42443 26.2751 19 26.2751C30.5756 26.2751 38 20.4054 38 13.1379V12.4189Z" fill="#2D3277"/>
<path d="M37.3219 12.4113C37.3219 18.8401 29.1393 24.071 19.0807 24.071C9.02212 24.071 0.838867 18.8401 0.838867 12.4113C0.838867 5.98246 9.02145 0.750854 19.08 0.750854C29.1386 0.750854 37.3219 5.98246 37.3219 12.4113Z" fill="#00BCFF"/>
<path d="M13.017 8.74776C13.017 8.74776 12.8171 8.94774 12.9375 9.10692C13.2169 9.46609 14.0948 9.66607 15.0134 9.46609C15.5322 9.34637 16.2509 8.78722 16.8894 8.26821C17.6081 7.70906 18.3261 7.11046 19.0448 6.91048C19.803 6.67104 20.2823 6.79076 20.6012 6.87035C20.9603 6.99007 21.3594 7.22951 22.038 7.70906C23.2755 8.62737 28.3045 13.0203 29.183 13.7787C29.8616 13.459 32.9751 12.1414 37.2058 11.183C36.8468 8.94707 35.4896 6.87035 33.4137 5.19358C30.5395 6.39146 26.9874 7.0302 23.5149 5.35344C23.5149 5.35344 21.6389 4.47526 19.7629 4.51472C17.0084 4.59431 15.8511 5.75273 14.5741 7.0302L13.0177 8.74709L13.017 8.74776Z" fill="white"/>
<path d="M28.9836 14.2597C28.9435 14.2196 23.0762 9.10838 21.7591 8.11048C21.001 7.55134 20.5617 7.39148 20.1225 7.31189C19.8831 7.27176 19.5635 7.31189 19.3242 7.39148C18.7252 7.55134 17.8874 8.11048 17.1687 8.66896C16.4106 9.26823 15.732 9.8267 15.0928 9.94642C14.2545 10.1464 13.257 9.9063 12.8177 9.58726C12.6178 9.46754 12.4981 9.30769 12.4186 9.14784C12.2588 8.74855 12.5784 8.42884 12.6185 8.38938L14.215 6.63236L14.7739 6.07322C14.2551 6.15281 13.7758 6.2732 13.2971 6.39292C12.698 6.55277 12.1398 6.71262 11.5809 6.71262C11.3415 6.71262 10.0639 6.51264 9.82453 6.43305C8.34767 6.03375 7.07004 5.63446 5.15459 4.75562C2.87946 6.47251 1.32237 8.58936 0.883789 10.945C1.20336 11.0246 1.76162 11.1844 1.96152 11.2246C7.15026 12.3823 8.74747 13.5809 9.06638 13.8203C9.38595 13.4611 9.82453 13.2612 10.3433 13.2612C10.9023 13.2612 11.4211 13.5407 11.7406 13.9802C12.0201 13.7407 12.4594 13.5407 12.9782 13.5407C13.2175 13.5407 13.4569 13.5809 13.7363 13.6605C14.3354 13.8604 14.6141 14.2597 14.7739 14.6189C14.9738 14.5393 15.2132 14.459 15.4926 14.459C15.7721 14.459 16.0516 14.5386 16.3705 14.659C17.3285 15.0583 17.4883 16.0168 17.4081 16.7357H17.608C18.7653 16.7357 19.6839 17.6541 19.6839 18.8125C19.6839 19.1716 19.6043 19.4913 19.4445 19.7709C19.7641 19.9308 20.5223 20.3301 21.241 20.2498C21.7999 20.1702 21.9991 20.0103 22.0794 19.8906C22.1195 19.811 22.199 19.7308 22.1195 19.6512L20.6426 18.0139C20.6426 18.0139 20.4033 17.7744 20.4828 17.6942C20.5624 17.6139 20.7222 17.7343 20.8418 17.8139C21.6 18.4526 22.4785 19.3709 22.4785 19.3709C22.4785 19.3709 22.5581 19.4907 22.8776 19.5709C23.1571 19.6111 23.6759 19.5709 24.0349 19.2914C24.1145 19.2118 24.2348 19.1315 24.2743 19.0519C24.6333 18.573 24.2341 18.0935 24.2341 18.0935L22.5179 16.1766C22.5179 16.1766 22.2786 15.9372 22.3582 15.8569C22.4377 15.7766 22.5975 15.897 22.7172 15.9766C23.2761 16.416 24.0342 17.2146 24.753 17.933C24.9127 18.0527 25.5512 18.452 26.3896 17.8928C26.9084 17.5337 27.0281 17.1344 26.9886 16.8147C26.9485 16.4154 26.6296 16.0957 26.6296 16.0957L24.3144 13.7394C24.3144 13.7394 24.075 13.5394 24.1546 13.4197C24.2341 13.3401 24.3939 13.4598 24.5136 13.5394C25.2718 14.1781 27.2681 16.0154 27.2681 16.0154C27.3082 16.0154 27.9868 16.5344 28.8646 15.9753C29.1842 15.7753 29.3834 15.4964 29.3834 15.1366C29.4236 14.6176 28.9843 14.2584 28.9843 14.2584L28.9836 14.2597Z" fill="white"/>
<path d="M17.6877 17.2507C17.3287 17.2507 16.9296 17.4507 16.8895 17.4507C16.8493 17.4507 16.8895 17.2908 16.9296 17.2112C16.9697 17.1316 17.4484 15.6936 16.2911 15.1746C15.4133 14.7753 14.8543 15.2148 14.6946 15.4141C14.6544 15.4542 14.615 15.4542 14.615 15.4141C14.615 15.1746 14.4953 14.4556 13.6971 14.2162C12.5792 13.857 11.9006 14.6556 11.7014 14.9352C11.6218 14.2964 11.1024 13.8169 10.4244 13.8169C9.70571 13.8169 9.14746 14.376 9.14746 15.0944C9.14746 15.8127 9.70638 16.3718 10.4244 16.3718C10.7834 16.3718 11.0629 16.2521 11.3023 16.0127V16.0528C11.2621 16.3725 11.1425 17.5303 12.3399 17.9697C12.8186 18.1697 13.2177 18.0098 13.5774 17.7697C13.6971 17.6901 13.6971 17.7296 13.6971 17.8098C13.6569 18.0894 13.6971 18.7281 14.615 19.0873C15.2936 19.3669 15.6927 19.0873 15.9321 18.8479C16.0517 18.7281 16.0919 18.7683 16.0919 18.9274C16.132 19.7662 16.85 20.445 17.6884 20.445C18.5268 20.445 19.2849 19.726 19.2849 18.8479C19.2849 17.9697 18.5662 17.2507 17.6884 17.2507H17.6877Z" fill="white"/>
<path d="M29.2172 13.6576C27.4208 12.1006 23.2696 8.46681 22.1124 7.62809C21.4739 7.14921 21.0346 6.86963 20.6355 6.78937C20.4757 6.74924 20.2364 6.66965 19.9168 6.66965C19.6373 6.66965 19.3177 6.70978 18.9988 6.8295C18.2801 7.06895 17.5621 7.62809 16.8434 8.18723L16.8033 8.22736C16.1648 8.74638 15.4862 9.26539 14.9674 9.38511C14.728 9.42524 14.5281 9.4647 14.2888 9.4647C13.7299 9.4647 13.2111 9.30485 13.0118 9.06541C12.9717 9.02528 13.0118 8.94569 13.0914 8.86543L14.6879 7.14854C15.9254 5.91053 17.0827 4.75278 19.7971 4.67252H19.9168C21.5935 4.67252 23.2696 5.43098 23.4695 5.51123C25.0661 6.26969 26.6626 6.66898 28.2993 6.66898C29.9359 6.66898 31.7718 6.22956 33.6084 5.39151C33.4085 5.23166 33.1691 5.03235 32.9699 4.8725C31.3332 5.59149 29.8162 5.91053 28.2999 5.91053C26.7836 5.91053 25.2666 5.55136 23.7891 4.83237C23.7096 4.79224 21.873 3.91406 19.9174 3.91406H19.7577C17.4825 3.95419 16.2049 4.75278 15.3672 5.47111C14.5288 5.47111 13.8108 5.71055 13.1716 5.8704C12.6127 6.03025 12.0939 6.14997 11.6152 6.14997H11.0161C10.4572 6.14997 7.66328 5.47111 5.46771 4.59293C5.22836 4.75278 5.02846 4.91263 4.78911 5.07181C7.10436 6.03025 9.93842 6.74924 10.8162 6.82884C11.0556 6.82884 11.3351 6.86897 11.6145 6.86897C12.2135 6.86897 12.7718 6.70911 13.3708 6.54926C13.7299 6.46967 14.0895 6.34928 14.4486 6.26969L14.129 6.58939L12.5325 8.34642C12.4128 8.46614 12.1333 8.8253 12.2931 9.22459C12.3727 9.38445 12.5325 9.5443 12.7324 9.70348C13.1315 9.94292 13.8101 10.1429 14.4486 10.1429C14.6879 10.1429 14.9273 10.1028 15.1272 10.0633C15.8058 9.90346 16.5245 9.34432 17.2425 8.74571C17.8415 8.26683 18.6793 7.66755 19.3184 7.46824C19.5183 7.42811 19.7175 7.38865 19.9174 7.38865H20.0772C20.5165 7.42878 20.9156 7.58863 21.6738 8.1471C22.9908 9.14567 28.8589 14.2569 28.8983 14.2964C28.8983 14.2964 29.2573 14.6161 29.2573 15.1745C29.2573 15.4541 29.0574 15.7337 28.7786 15.933C28.5393 16.0928 28.2598 16.1724 28.0205 16.1724C27.6213 16.1724 27.3419 15.9724 27.3419 15.9724C27.3419 15.9724 25.3061 14.1358 24.5874 13.4964C24.4677 13.3767 24.348 13.2964 24.2284 13.2964C24.1488 13.2964 24.1087 13.3366 24.0686 13.376C23.9489 13.5359 24.0686 13.7352 24.2284 13.8549L26.5837 16.2112C26.5837 16.2112 26.8632 16.4908 26.9033 16.85C26.9033 17.2492 26.7435 17.569 26.3444 17.8084C26.0649 18.0084 25.7855 18.088 25.506 18.088C25.147 18.088 24.907 17.9281 24.8274 17.888L24.4684 17.5683C23.8693 16.969 23.2309 16.3303 22.7522 15.9711C22.6325 15.8915 22.5128 15.7711 22.3931 15.7711C22.353 15.7711 22.2735 15.7711 22.2334 15.8507C22.1932 15.8908 22.1538 16.0106 22.2735 16.2099C22.3136 16.2895 22.3931 16.3296 22.3931 16.3296L24.1094 18.2465C24.1094 18.2465 24.4684 18.6859 24.1495 19.0451L24.0699 19.1247L23.9101 19.2845C23.6307 19.5239 23.2315 19.5641 23.0717 19.5641H22.8324C22.6726 19.5239 22.5529 19.4845 22.4734 19.4042C22.3938 19.2845 21.5153 18.4458 20.7966 17.8472C20.717 17.7676 20.5967 17.6873 20.477 17.6873C20.4369 17.6873 20.3574 17.7275 20.3172 17.7669C20.1976 17.9268 20.3968 18.1662 20.477 18.2458L21.9539 19.843C21.9539 19.843 21.9539 19.8831 21.9138 19.9627C21.8737 20.0423 21.6744 20.2021 21.1556 20.2824H20.9557C20.3968 20.2824 19.8379 20.0028 19.519 19.843C19.6387 19.5634 19.7189 19.2437 19.7189 18.9247C19.7189 17.7268 18.7608 16.7684 17.5634 16.7684H17.4839C17.524 16.2092 17.4437 15.1712 16.366 14.7318C16.0464 14.612 15.767 14.5318 15.4481 14.5318C15.2087 14.5318 15.0088 14.5719 14.7695 14.6515C14.5301 14.2121 14.1704 13.893 13.6918 13.7332C13.4123 13.6536 13.1729 13.6135 12.8935 13.6135C12.4542 13.6135 12.0551 13.7332 11.6961 14.0128C11.3451 13.58 10.8162 13.3306 10.2593 13.3339C9.78063 13.3339 9.30127 13.5339 8.98236 13.8529C8.54312 13.4938 6.74735 12.3755 1.91762 11.2572C1.67827 11.217 1.15946 11.0572 0.839888 10.9375C0.799774 11.1769 0.760329 11.4565 0.720215 11.7361C0.720215 11.7361 1.59804 11.936 1.79794 11.9755C6.7079 13.0537 8.34388 14.2114 8.62334 14.4114C8.54378 14.6508 8.50367 14.8903 8.50367 15.1304C8.50367 16.1684 9.34205 16.967 10.3396 16.967C10.4592 16.967 10.5789 16.967 10.6986 16.9269C10.8584 17.6853 11.3371 18.2445 12.0959 18.524C12.3352 18.6036 12.5351 18.6438 12.7344 18.6438C12.854 18.6438 13.0138 18.6438 13.1736 18.6036C13.2933 18.9628 13.6129 19.4022 14.3309 19.6818C14.5702 19.8015 14.8096 19.8416 15.0496 19.8416C15.2495 19.8416 15.4487 19.8015 15.6085 19.7219C15.9281 20.5205 16.7264 21.0797 17.6042 21.0797C18.2032 21.0797 18.7615 20.8402 19.1606 20.4008C19.5196 20.6008 20.2384 20.9599 20.9965 20.9599H21.276C22.0341 20.8803 22.3537 20.5606 22.5135 20.3607C22.5536 20.3205 22.5536 20.2811 22.5931 20.2409C22.7528 20.2811 22.9521 20.3205 23.1921 20.3205C23.5912 20.3205 23.9904 20.2008 24.3895 19.8811C24.7886 19.6015 25.0681 19.2022 25.0681 18.8431C25.1878 18.8832 25.3475 18.8832 25.4672 18.8832C25.8664 18.8832 26.3056 18.7635 26.7047 18.4839C27.4629 18.005 27.5826 17.3262 27.5826 16.9269C27.7022 16.967 27.862 16.967 27.9817 16.967C28.3808 16.967 28.78 16.8473 29.139 16.6078C29.6177 16.2881 29.8971 15.8494 29.9373 15.3304C29.9774 14.9712 29.8577 14.6114 29.6979 14.2923C30.9749 13.7332 33.849 12.6952 37.2821 11.8966C37.2821 11.617 37.242 11.3776 37.1625 11.098C33.0514 11.9762 29.9774 13.2944 29.2192 13.6536L29.2172 13.6576ZM17.6818 20.3265C16.8835 20.3265 16.245 19.6878 16.2049 18.8892C16.2049 18.8096 16.2049 18.6498 16.0451 18.6498C15.9655 18.6498 15.9254 18.6899 15.8452 18.7294C15.6854 18.8892 15.4461 19.0491 15.1265 19.0491C14.9667 19.0491 14.8069 19.0089 14.6478 18.9294C13.8094 18.5702 13.77 18.011 13.8094 17.7716C13.8094 17.692 13.8094 17.6519 13.7693 17.6118L13.7292 17.5716H13.6891C13.649 17.5716 13.6095 17.5716 13.5293 17.6512C13.2899 17.8111 13.0506 17.8907 12.8106 17.8907C12.6909 17.8907 12.5311 17.8505 12.4114 17.8111C11.2936 17.3716 11.3738 16.3336 11.4534 16.0139C11.4534 15.9343 11.4534 15.8942 11.4133 15.8541L11.3337 15.7745L11.2542 15.8541C11.0148 16.054 10.7353 16.1738 10.4559 16.1738C9.81741 16.1738 9.2986 15.6548 9.2986 15.016C9.2986 14.3773 9.81741 13.8583 10.4559 13.8583C11.0148 13.8583 11.5336 14.2977 11.6132 14.8568L11.6533 15.1765L11.8131 14.897C11.8131 14.8568 12.2918 14.1385 13.1703 14.178C13.3301 14.178 13.4898 14.2181 13.6891 14.2576C14.3677 14.4575 14.4873 15.0963 14.4873 15.3357C14.4873 15.4956 14.607 15.4956 14.607 15.4956C14.6471 15.4956 14.7267 15.4554 14.7267 15.416C14.8464 15.2963 15.1258 15.0568 15.5651 15.0568C15.765 15.0568 15.9642 15.0969 16.2036 15.2167C17.2813 15.6955 16.8026 17.0533 16.8026 17.0934C16.723 17.3329 16.6829 17.4131 16.8026 17.4927H16.8822C16.9223 17.4927 17.0018 17.4927 17.0821 17.4526C17.2418 17.4124 17.4411 17.3329 17.641 17.3329C18.4392 17.3329 19.1178 18.0117 19.1178 18.8103C19.158 19.6885 18.4794 20.3279 17.6811 20.3279L17.6818 20.3265Z" fill="#2D3277"/>
</svg>
