<svg width="38" height="27" viewBox="0 0 38 27" fill="none" xmlns="http://www.w3.org/2000/svg">
<path d="M38 12.4189C38 5.5901 29.4978 0 19 0C8.50216 0 0 5.5901 0 12.4189V13.1379C0 20.4054 7.42443 26.2751 19 26.2751C30.5756 26.2751 38 20.4054 38 13.1379V12.4189Z" fill="#2D3277"/>
<path d="M37.3219 12.4113C37.3219 18.8401 29.1393 24.071 19.0807 24.071C9.02212 24.071 0.838867 18.8401 0.838867 12.4113C0.838867 5.98246 9.02145 0.750854 19.08 0.750854C29.1386 0.750854 37.3212 5.98179 37.3212 12.4106L37.3219 12.4113Z" fill="#E03F88"/>
<path d="M13.017 8.74764C13.017 8.74764 12.8171 8.94762 12.9375 9.1068C13.2169 9.46596 14.0948 9.66595 15.0134 9.46597C15.5322 9.34624 16.2509 8.7871 16.8894 8.26809C17.6081 7.70894 18.3261 7.11034 19.0448 6.91036C19.803 6.67091 20.2823 6.79063 20.6012 6.87023C20.9603 6.98995 21.3594 7.22939 22.038 7.70894C23.2755 8.62725 28.3045 13.0201 29.183 13.7786C29.8616 13.4589 32.9751 12.1413 37.2058 11.1829C36.8468 8.94695 35.4896 6.87023 33.4137 5.19346C30.5395 6.39134 26.9874 7.03008 23.5149 5.35331C23.5149 5.35331 21.6389 4.47514 19.7629 4.5146C17.0084 4.59419 15.8511 5.75261 14.5741 7.03008L13.0177 8.74697L13.017 8.74764Z" fill="white"/>
<path d="M28.9836 14.2597C28.9435 14.2195 23.0762 9.10832 21.7591 8.11042C21.001 7.55127 20.5617 7.39142 20.1225 7.31183C19.8831 7.2717 19.5635 7.31183 19.3242 7.39142C18.7252 7.55127 17.8874 8.11042 17.1687 8.66889C16.4106 9.26817 15.732 9.82664 15.0928 9.94636C14.2545 10.1463 13.257 9.90623 12.8177 9.5872C12.6178 9.46748 12.4981 9.30763 12.4186 9.14778C12.2588 8.74849 12.5784 8.42878 12.6185 8.38932L14.215 6.6323L14.7739 6.07315C14.2551 6.15275 13.7758 6.27314 13.2971 6.39286C12.698 6.55271 12.1398 6.71256 11.5809 6.71256C11.3415 6.71256 10.0639 6.51258 9.82453 6.43299C8.34767 6.03369 7.07004 5.6344 5.15459 4.75555C2.87946 6.47245 1.32237 8.5893 0.883789 10.9449C1.20336 11.0245 1.76162 11.1844 1.96152 11.2245C7.15026 12.3823 8.74747 13.5808 9.06638 13.8202C9.38595 13.4611 9.82453 13.2611 10.3433 13.2611C10.9023 13.2611 11.4211 13.5407 11.7406 13.9801C12.0201 13.7407 12.4594 13.5407 12.9782 13.5407C13.2175 13.5407 13.4569 13.5808 13.7363 13.6604C14.3354 13.8604 14.6141 14.2597 14.7739 14.6188C14.9738 14.5392 15.2132 14.459 15.4926 14.459C15.7721 14.459 16.0516 14.5386 16.3705 14.659C17.3285 15.0583 17.4883 16.0167 17.4081 16.7357H17.608C18.7653 16.7357 19.6839 17.654 19.6839 18.8124C19.6839 19.1716 19.6043 19.4913 19.4445 19.7708C19.7641 19.9307 20.5223 20.33 21.241 20.2497C21.7999 20.1701 21.9991 20.0103 22.0794 19.8906C22.1195 19.811 22.199 19.7307 22.1195 19.6511L20.6426 18.0138C20.6426 18.0138 20.4033 17.7744 20.4828 17.6941C20.5624 17.6139 20.7222 17.7343 20.8418 17.8138C21.6 18.4526 22.4785 19.3709 22.4785 19.3709C22.4785 19.3709 22.5581 19.4906 22.8776 19.5709C23.1571 19.611 23.6759 19.5709 24.0349 19.2913C24.1145 19.2117 24.2348 19.1314 24.2743 19.0519C24.6333 18.573 24.2341 18.0934 24.2341 18.0934L22.5179 16.1765C22.5179 16.1765 22.2786 15.9371 22.3582 15.8568C22.4377 15.7766 22.5975 15.897 22.7172 15.9766C23.2761 16.416 24.0342 17.2146 24.753 17.9329C24.9127 18.0526 25.5512 18.4519 26.3896 17.8928C26.9084 17.5336 27.0281 17.1343 26.9886 16.8146C26.9485 16.4153 26.6296 16.0956 26.6296 16.0956L24.3144 13.7393C24.3144 13.7393 24.075 13.5393 24.1546 13.4196C24.2341 13.34 24.3939 13.4597 24.5136 13.5393C25.2718 14.1781 27.2681 16.0154 27.2681 16.0154C27.3082 16.0154 27.9868 16.5344 28.8646 15.9752C29.1842 15.7752 29.3834 15.4963 29.3834 15.1365C29.4236 14.6175 28.9843 14.2583 28.9843 14.2583L28.9836 14.2597Z" fill="white"/>
<path d="M17.6877 17.2506C17.3287 17.2506 16.9296 17.4506 16.8895 17.4506C16.8493 17.4506 16.8895 17.2907 16.9296 17.2112C16.9697 17.1316 17.4484 15.6936 16.2911 15.1746C15.4133 14.7753 14.8543 15.2147 14.6946 15.414C14.6544 15.4541 14.615 15.4541 14.615 15.414C14.615 15.1746 14.4953 14.4556 13.6971 14.2161C12.5792 13.857 11.9006 14.6555 11.7014 14.9351C11.6218 14.2964 11.1024 13.8168 10.4244 13.8168C9.70571 13.8168 9.14746 14.376 9.14746 15.0943C9.14746 15.8126 9.70638 16.3718 10.4244 16.3718C10.7834 16.3718 11.0629 16.2521 11.3023 16.0126V16.0527C11.2621 16.3724 11.1425 17.5302 12.3399 17.9696C12.8186 18.1696 13.2177 18.0097 13.5774 17.7696C13.6971 17.69 13.6971 17.7295 13.6971 17.8098C13.6569 18.0893 13.6971 18.7281 14.615 19.0872C15.2936 19.3668 15.6927 19.0872 15.9321 18.8478C16.0517 18.7281 16.0919 18.7682 16.0919 18.9274C16.132 19.7661 16.85 20.445 17.6884 20.445C18.5268 20.445 19.2849 19.726 19.2849 18.8478C19.2849 17.9696 18.5662 17.2506 17.6884 17.2506H17.6877Z" fill="white"/>
<path d="M29.2172 13.6576C27.4208 12.1005 23.2696 8.46675 22.1124 7.62803C21.4739 7.14915 21.0346 6.86957 20.6355 6.78931C20.4757 6.74918 20.2364 6.66959 19.9168 6.66959C19.6373 6.66959 19.3177 6.70972 18.9988 6.82944C18.2801 7.06889 17.5621 7.62803 16.8434 8.18717L16.8033 8.2273C16.1648 8.74632 15.4862 9.26533 14.9674 9.38505C14.728 9.42518 14.5281 9.46464 14.2888 9.46464C13.7299 9.46464 13.2111 9.30479 13.0118 9.06535C12.9717 9.02522 13.0118 8.94563 13.0914 8.86537L14.6879 7.14848C15.9254 5.91047 17.0827 4.75272 19.7971 4.67246H19.9168C21.5935 4.67246 23.2696 5.43091 23.4695 5.51117C25.0661 6.26963 26.6626 6.66892 28.2993 6.66892C29.9359 6.66892 31.7718 6.2295 33.6084 5.39145C33.4085 5.2316 33.1691 5.03229 32.9699 4.87244C31.3332 5.59143 29.8162 5.91047 28.2999 5.91047C26.7836 5.91047 25.2666 5.5513 23.7891 4.83231C23.7096 4.79218 21.873 3.914 19.9174 3.914H19.7577C17.4825 3.95413 16.2049 4.75272 15.3672 5.47104C14.5288 5.47104 13.8108 5.71049 13.1716 5.87034C12.6127 6.03019 12.0939 6.14991 11.6152 6.14991H11.0161C10.4572 6.14991 7.66328 5.47104 5.46771 4.59287C5.22836 4.75272 5.02846 4.91257 4.78911 5.07175C7.10436 6.03019 9.93842 6.74918 10.8162 6.82877C11.0556 6.82877 11.3351 6.8689 11.6145 6.8689C12.2135 6.8689 12.7718 6.70905 13.3708 6.5492C13.7299 6.46961 14.0895 6.34922 14.4486 6.26963L14.129 6.58933L12.5325 8.34636C12.4128 8.46608 12.1333 8.82524 12.2931 9.22453C12.3727 9.38438 12.5325 9.54424 12.7324 9.70342C13.1315 9.94286 13.8101 10.1428 14.4486 10.1428C14.6879 10.1428 14.9273 10.1027 15.1272 10.0632C15.8058 9.9034 16.5245 9.34425 17.2425 8.74565C17.8415 8.26676 18.6793 7.66749 19.3184 7.46818C19.5183 7.42805 19.7175 7.38859 19.9174 7.38859H20.0772C20.5165 7.42872 20.9156 7.58857 21.6738 8.14704C22.9908 9.14561 28.8589 14.2568 28.8983 14.2963C28.8983 14.2963 29.2573 14.616 29.2573 15.1745C29.2573 15.454 29.0574 15.7336 28.7786 15.9329C28.5393 16.0928 28.2598 16.1724 28.0205 16.1724C27.6213 16.1724 27.3419 15.9724 27.3419 15.9724C27.3419 15.9724 25.3061 14.1358 24.5874 13.4964C24.4677 13.3766 24.348 13.2964 24.2284 13.2964C24.1488 13.2964 24.1087 13.3365 24.0686 13.376C23.9489 13.5358 24.0686 13.7351 24.2284 13.8549L26.5837 16.2112C26.5837 16.2112 26.8632 16.4907 26.9033 16.8499C26.9033 17.2492 26.7435 17.5689 26.3444 17.8083C26.0649 18.0083 25.7855 18.0879 25.506 18.0879C25.147 18.0879 24.907 17.9281 24.8274 17.8879L24.4684 17.5682C23.8693 16.9689 23.2309 16.3302 22.7522 15.971C22.6325 15.8915 22.5128 15.7711 22.3931 15.7711C22.353 15.7711 22.2735 15.7711 22.2334 15.8507C22.1932 15.8908 22.1538 16.0105 22.2735 16.2098C22.3136 16.2894 22.3931 16.3295 22.3931 16.3295L24.1094 18.2464C24.1094 18.2464 24.4684 18.6858 24.1495 19.045L24.0699 19.1246L23.9101 19.2844C23.6307 19.5239 23.2315 19.564 23.0717 19.564H22.8324C22.6726 19.5239 22.5529 19.4844 22.4734 19.4042C22.3938 19.2844 21.5153 18.4457 20.7966 17.8471C20.717 17.7675 20.5967 17.6873 20.477 17.6873C20.4369 17.6873 20.3574 17.7274 20.3172 17.7669C20.1976 17.9267 20.3968 18.1662 20.477 18.2457L21.9539 19.8429C21.9539 19.8429 21.9539 19.883 21.9138 19.9626C21.8737 20.0422 21.6744 20.2021 21.1556 20.2823H20.9557C20.3968 20.2823 19.8379 20.0028 19.519 19.8429C19.6387 19.5633 19.7189 19.2436 19.7189 18.9246C19.7189 17.7267 18.7608 16.7683 17.5634 16.7683H17.4839C17.524 16.2092 17.4437 15.1711 16.366 14.7317C16.0464 14.612 15.767 14.5317 15.4481 14.5317C15.2087 14.5317 15.0088 14.5719 14.7695 14.6514C14.5301 14.212 14.1704 13.893 13.6918 13.7331C13.4123 13.6535 13.1729 13.6134 12.8935 13.6134C12.4542 13.6134 12.0551 13.7331 11.6961 14.0127C11.3451 13.58 10.8162 13.3305 10.2593 13.3338C9.78063 13.3338 9.30127 13.5338 8.98236 13.8529C8.54312 13.4937 6.74735 12.3754 1.91762 11.2571C1.67827 11.217 1.15946 11.0571 0.839888 10.9374C0.799774 11.1769 0.760329 11.4564 0.720215 11.736C0.720215 11.736 1.59804 11.936 1.79794 11.9754C6.7079 13.0536 8.34388 14.2113 8.62334 14.4113C8.54378 14.6508 8.50367 14.8902 8.50367 15.1303C8.50367 16.1684 9.34205 16.9669 10.3396 16.9669C10.4592 16.9669 10.5789 16.9669 10.6986 16.9268C10.8584 17.6853 11.3371 18.2444 12.0959 18.524C12.3352 18.6036 12.5351 18.6437 12.7344 18.6437C12.854 18.6437 13.0138 18.6437 13.1736 18.6036C13.2933 18.9627 13.6129 19.4022 14.3309 19.6817C14.5702 19.8015 14.8096 19.8416 15.0496 19.8416C15.2495 19.8416 15.4487 19.8015 15.6085 19.7219C15.9281 20.5204 16.7264 21.0796 17.6042 21.0796C18.2032 21.0796 18.7615 20.8402 19.1606 20.4007C19.5196 20.6007 20.2384 20.9599 20.9965 20.9599H21.276C22.0341 20.8803 22.3537 20.5606 22.5135 20.3606C22.5536 20.3205 22.5536 20.281 22.5931 20.2409C22.7528 20.281 22.9521 20.3205 23.1921 20.3205C23.5912 20.3205 23.9904 20.2007 24.3895 19.881C24.7886 19.6015 25.0681 19.2022 25.0681 18.843C25.1878 18.8831 25.3475 18.8831 25.4672 18.8831C25.8664 18.8831 26.3056 18.7634 26.7047 18.4839C27.4629 18.005 27.5826 17.3261 27.5826 16.9268C27.7022 16.9669 27.862 16.9669 27.9817 16.9669C28.3808 16.9669 28.78 16.8472 29.139 16.6078C29.6177 16.2881 29.8971 15.8493 29.9373 15.3303C29.9774 14.9711 29.8577 14.6113 29.6979 14.2923C30.9749 13.7331 33.849 12.6951 37.2821 11.8965C37.2821 11.6169 37.242 11.3775 37.1625 11.0979C33.0514 11.9761 29.9774 13.2944 29.2192 13.6535L29.2172 13.6576ZM17.6818 20.3265C16.8835 20.3265 16.245 19.6878 16.2049 18.8892C16.2049 18.8096 16.2049 18.6497 16.0451 18.6497C15.9655 18.6497 15.9254 18.6899 15.8452 18.7293C15.6854 18.8892 15.4461 19.049 15.1265 19.049C14.9667 19.049 14.8069 19.0089 14.6478 18.9293C13.8094 18.5701 13.77 18.011 13.8094 17.7715C13.8094 17.692 13.8094 17.6518 13.7693 17.6117L13.7292 17.5716H13.6891C13.649 17.5716 13.6095 17.5716 13.5293 17.6512C13.2899 17.811 13.0506 17.8906 12.8106 17.8906C12.6909 17.8906 12.5311 17.8505 12.4114 17.811C11.2936 17.3716 11.3738 16.3336 11.4534 16.0139C11.4534 15.9343 11.4534 15.8941 11.4133 15.854L11.3337 15.7744L11.2542 15.854C11.0148 16.054 10.7353 16.1737 10.4559 16.1737C9.81741 16.1737 9.2986 15.6547 9.2986 15.016C9.2986 14.3772 9.81741 13.8582 10.4559 13.8582C11.0148 13.8582 11.5336 14.2976 11.6132 14.8568L11.6533 15.1765L11.8131 14.8969C11.8131 14.8568 12.2918 14.1384 13.1703 14.1779C13.3301 14.1779 13.4898 14.218 13.6891 14.2575C14.3677 14.4575 14.4873 15.0962 14.4873 15.3357C14.4873 15.4955 14.607 15.4955 14.607 15.4955C14.6471 15.4955 14.7267 15.4554 14.7267 15.4159C14.8464 15.2962 15.1258 15.0568 15.5651 15.0568C15.765 15.0568 15.9642 15.0969 16.2036 15.2166C17.2813 15.6955 16.8026 17.0532 16.8026 17.0933C16.723 17.3328 16.6829 17.4131 16.8026 17.4926H16.8822C16.9223 17.4926 17.0018 17.4926 17.0821 17.4525C17.2418 17.4124 17.4411 17.3328 17.641 17.3328C18.4392 17.3328 19.1178 18.0117 19.1178 18.8102C19.158 19.6884 18.4794 20.3278 17.6811 20.3278L17.6818 20.3265Z" fill="#2D3277"/>
</svg>
