<svg width="38" height="27" viewBox="0 0 38 27" fill="none" xmlns="http://www.w3.org/2000/svg">
<path d="M25.8955 0.11435C23.8541 -0.0998999 21.7909 0.166868 19.8705 0.893375C17.9502 1.61988 16.2259 2.78602 14.8351 4.29878C13.4911 3.64913 12.0177 3.31324 10.5256 3.31637C8.88606 3.32361 7.27262 3.72808 5.82286 4.49531C4.37309 5.26254 3.13002 6.36974 2.19965 7.7225C1.26928 9.07526 0.679214 10.6334 0.479787 12.2641C0.280359 13.8948 0.477481 15.5497 1.05434 17.0875C1.63185 18.7511 2.6689 20.2162 4.04484 21.3123C5.5425 22.518 7.34796 23.2781 9.25562 23.506C11.1633 23.7339 13.0965 23.4203 14.835 22.6011C16.0737 23.943 17.5762 25.0134 19.248 25.7448C20.9198 26.4763 22.7246 26.8529 24.5488 26.851C27.9814 26.8545 31.2839 25.5352 33.7727 23.1663C36.2616 20.7974 37.7462 17.5602 37.9192 14.1249C38.0922 10.6896 36.9405 7.3191 34.7024 4.71111C32.4642 2.10312 29.3111 0.457317 25.8955 0.11435V0.11435ZM27.2361 24.7159C25.5745 25.1098 23.8464 25.13 22.1761 24.7752C20.5057 24.4204 18.9345 23.6993 17.5752 22.6638C16.216 21.6282 15.1024 20.3039 14.3145 18.786C13.5267 17.268 13.084 15.5941 13.0184 13.8843C13.0139 13.7591 13.0294 13.6141 12.9688 13.5535C12.9123 13.4968 12.6912 13.5071 12.6912 13.5071H11.5781C11.5781 13.5071 11.1839 13.4499 11.1958 13.9084C11.2707 16.5178 12.1255 19.0445 13.6495 21.1616C12.6259 21.5673 11.5331 21.769 10.4324 21.7552C8.81539 21.735 7.23959 21.2413 5.89912 20.3349C4.55866 19.4284 3.51208 18.1489 2.88831 16.6538C2.26455 15.1587 2.09085 13.5135 2.38862 11.9207C2.68638 10.328 3.4426 8.85727 4.56411 7.68983C5.68562 6.52239 7.12344 5.70919 8.70044 5.35041C10.2774 4.99163 11.9247 5.10294 13.4394 5.67064C14.954 6.23833 16.2699 7.23761 17.2248 8.54537C18.1798 9.85312 18.7321 11.4122 18.8137 13.0306C18.8209 13.1658 18.7972 13.3025 18.8939 13.3989C18.9455 13.4504 19.1165 13.4386 19.1165 13.4386H20.2387C20.2387 13.4386 20.5031 13.4552 20.5755 13.3822C20.6957 13.261 20.6431 13.0978 20.6338 12.9291C20.5515 11.4161 20.1336 9.94048 19.4105 8.60966C18.6875 7.27883 17.6775 6.12625 16.454 5.23575C17.5165 4.16984 18.7784 3.32447 20.1675 2.74809C21.5565 2.17171 23.0454 1.87565 24.5489 1.87686C27.3819 1.87191 30.118 2.91033 32.237 4.79469C34.3559 6.67906 35.71 9.27798 36.0417 12.0974C36.3734 14.9167 35.6597 17.7599 34.0362 20.0865C32.4127 22.413 29.9926 24.0606 27.2361 24.716V24.7159Z" fill="white"/>
</svg>
