<svg width="42" height="31" viewBox="0 0 42 31" fill="none" xmlns="http://www.w3.org/2000/svg">
<path d="M12.5645 15.726C12.5645 19.1474 13.8172 22.286 15.9185 24.6836C18.4374 27.5932 22.1417 29.4251 26.277 29.4251C33.8472 29.4251 40.003 23.2962 40.003 15.7126C40.003 8.12889 33.8472 2 26.277 2C22.1956 2 18.7607 3.52212 16.2687 6.37778" stroke="#2B3457" stroke-width="3" stroke-linecap="square" stroke-linejoin="round"/>
<path d="M21.6431 15.2814C21.5353 11.4694 19.2858 8.20965 16.0395 6.64712C14.706 5.97362 13.2108 5.60992 11.6214 5.60992C6.08515 5.60992 1.59961 10.1089 1.59961 15.6317C1.59961 21.1544 6.09862 25.6534 11.6214 25.6534C13.1569 25.6534 14.3827 25.4244 15.6893 24.7779" stroke="#2B3457" stroke-width="3" stroke-linecap="square" stroke-linejoin="round"/>
</svg>
