<svg width="41" height="25" viewBox="0 0 41 25" fill="none" xmlns="http://www.w3.org/2000/svg">
<path d="M3.80494 0H37.1782C39.2902 0 41 1.70679 41 3.81537V16.5331C41 18.6415 39.2903 20.3485 37.1782 20.3485H25.2102L26.853 24.3645L19.6285 20.3485H3.82192C1.70994 20.3485 0.000122201 18.6417 0.000122201 16.5331V3.81537C-0.0166397 1.72358 1.69297 0 3.80494 0Z" fill="#6A4595"/>
<path d="M2.33411 3.47743C2.56744 3.1613 2.91744 2.99491 3.3841 2.96163C4.2341 2.89508 4.71743 3.2944 4.8341 4.15962C5.35077 7.63715 5.91743 10.5821 6.5175 12.9948L10.1675 6.05651C10.5008 5.42424 10.9174 5.09147 11.4175 5.05819C12.1508 5.00828 12.6008 5.47416 12.7841 6.45584C13.2008 8.66883 13.7341 10.5489 14.3674 12.1462C14.8008 7.91992 15.5341 4.8752 16.5675 2.99494C16.8175 2.52906 17.1842 2.29612 17.6675 2.26283C18.0508 2.22956 18.4008 2.34603 18.7175 2.5956C19.0342 2.84519 19.2008 3.16132 19.2342 3.544C19.2508 3.8435 19.2008 4.09307 19.0675 4.34265C18.4175 5.54064 17.8842 7.55398 17.4509 10.3491C17.0342 13.0613 16.8842 15.1743 16.9842 16.6885C17.0175 17.1044 16.9509 17.4705 16.7842 17.7866C16.5842 18.1527 16.2842 18.3523 15.9009 18.3856C15.4676 18.4189 15.0176 18.2192 14.5842 17.77C13.0342 16.1893 11.8009 13.8267 10.901 10.6819C9.81764 12.8116 9.01769 14.409 8.50103 15.4738C7.51771 17.3539 6.68438 18.319 5.98434 18.3689C5.53434 18.4022 5.15101 18.0195 4.81767 17.2208C3.96768 15.0411 3.05099 10.8316 2.06764 4.59219C2.00097 4.15958 2.10097 3.77689 2.3343 3.4774L2.33411 3.47743ZM38.1513 6.08965C37.5514 5.04142 36.668 4.40909 35.4847 4.1595C35.1681 4.09295 34.8681 4.05967 34.5848 4.05967C32.9848 4.05967 31.6848 4.89161 30.6681 6.5555C29.8015 7.96978 29.3681 9.53387 29.3681 11.2475C29.3681 12.5287 29.6348 13.6268 30.1681 14.542C30.7681 15.5902 31.6515 16.2226 32.8347 16.4722C33.1514 16.5387 33.4514 16.572 33.7347 16.572C35.3513 16.572 36.6513 15.74 37.6513 14.0762C38.518 12.6452 38.9513 11.0812 38.9513 9.36749C38.968 8.06967 38.6847 6.98822 38.1513 6.08965ZM36.0514 10.6985C35.8181 11.7967 35.4014 12.6119 34.7847 13.1611C34.3014 13.5937 33.8514 13.7767 33.4347 13.6936C33.0347 13.6104 32.7014 13.261 32.4514 12.6121C32.2514 12.0963 32.1514 11.5805 32.1514 11.0979C32.1514 10.682 32.1847 10.266 32.2681 9.88333C32.4181 9.20114 32.7014 8.5356 33.1514 7.9033C33.7014 7.088 34.2847 6.75523 34.8848 6.87171C35.2848 6.9549 35.6181 7.30431 35.8681 7.95321C36.0681 8.46901 36.1681 8.9848 36.1681 9.46732C36.1681 9.89993 36.1347 10.3159 36.0514 10.6985ZM27.718 6.08965C27.118 5.04142 26.218 4.40909 25.0514 4.1595C24.7347 4.09295 24.4347 4.05967 24.1514 4.05967C22.5514 4.05967 21.2515 4.89161 20.2348 6.5555C19.3681 7.96978 18.9348 9.53387 18.9348 11.2475C18.9348 12.5287 19.2015 13.6268 19.7348 14.542C20.3348 15.5902 21.2181 16.2226 22.4014 16.4722C22.718 16.5387 23.018 16.572 23.3014 16.572C24.918 16.572 26.218 15.74 27.218 14.0762C28.0847 12.6452 28.518 11.0812 28.518 9.36749C28.518 8.06967 28.2513 6.98822 27.718 6.08965ZM25.6014 10.6985C25.368 11.7967 24.9514 12.6119 24.3347 13.1611C23.8514 13.5937 23.4014 13.7767 22.9847 13.6936C22.5847 13.6104 22.2514 13.261 22.0014 12.6121C21.8014 12.0963 21.7014 11.5805 21.7014 11.0979C21.7014 10.682 21.7347 10.266 21.8181 9.88333C21.9681 9.20114 22.2514 8.5356 22.7014 7.9033C23.2514 7.088 23.8347 6.75523 24.4347 6.87171C24.8348 6.9549 25.1681 7.30431 25.4181 7.95321C25.6181 8.46901 25.7181 8.9848 25.7181 9.46732C25.7347 9.89993 25.6847 10.3159 25.6014 10.6985Z" fill="white"/>
</svg>
