<svg width="28" height="29" viewBox="0 0 28 29" fill="none" xmlns="http://www.w3.org/2000/svg">
<path d="M0 28.1301C0.0707835 27.8679 0.138086 27.6196 0.206549 27.3701C0.786742 25.2489 1.3681 23.1277 1.94597 21.0065C1.95989 20.9555 1.95409 20.8835 1.92856 20.8383C0.970083 19.1395 0.363201 17.3223 0.191464 15.3798C-0.205388 10.8856 1.20448 7.03548 4.43035 3.88271C6.44362 1.9147 8.87231 0.706735 11.6456 0.214732C15.9982 -0.558085 20.4367 0.779839 23.6405 3.82933C25.7362 5.82404 27.0939 8.23764 27.6973 11.0701C28.6662 15.627 27.2772 20.3834 23.9921 23.7149C21.9046 25.8326 19.3947 27.1728 16.4636 27.6822C13.3119 28.2299 10.3135 27.7379 7.48101 26.248C7.41371 26.212 7.35453 26.2051 7.28142 26.2248C4.88755 26.8549 2.49367 27.4826 0.0986326 28.1104C0.0707834 28.1174 0.0417739 28.122 0 28.1301ZM3.34887 24.8196C3.39297 24.8103 3.42198 24.8045 3.44983 24.7975C4.71697 24.4656 5.98411 24.1326 7.25125 23.8007C7.4079 23.7601 7.57152 23.6743 7.71889 23.6951C7.8709 23.7172 8.00782 23.8437 8.14939 23.9261C10.4017 25.2396 12.8257 25.7548 15.4146 25.4589C17.3536 25.2373 19.1208 24.5469 20.7175 23.4248C24.816 20.5447 26.603 15.3288 25.1316 10.541C23.3562 4.76112 17.4255 1.31014 11.5192 2.64226C5.00707 4.11015 0.945715 10.8207 3.00424 17.4418C3.33959 18.521 3.84088 19.5212 4.46168 20.4623C4.5023 20.525 4.5081 20.5783 4.48953 20.6503C4.12749 21.965 3.76777 23.2809 3.40689 24.5968C3.38717 24.6664 3.36976 24.736 3.34887 24.8196Z" fill="#FBFBFB"/>
<path d="M9.50049 7.52127C9.64554 7.52127 9.79059 7.52127 9.93448 7.52127C10.1051 7.52127 10.2489 7.58857 10.3429 7.72549C10.4358 7.8601 10.5193 8.00515 10.5831 8.156C10.922 8.96014 11.2341 9.77473 11.5938 10.5696C11.7551 10.927 11.7551 11.2299 11.5532 11.5594C11.3455 11.8982 11.0856 12.1941 10.8187 12.4831C10.5054 12.8219 10.4822 12.9414 10.7189 13.3325C11.588 14.7644 12.7055 15.9503 14.1792 16.7695C14.6085 17.0074 15.0599 17.2047 15.5078 17.4078C15.7805 17.5308 15.965 17.4832 16.1541 17.2523C16.5301 16.7939 16.9014 16.3321 17.2693 15.8668C17.4329 15.6602 17.5907 15.5859 17.8413 15.6718C18.1013 15.7612 18.3566 15.8702 18.606 15.9886C19.3174 16.3274 20.0206 16.686 20.7353 17.0155C21.0382 17.1548 21.1543 17.359 21.1299 17.6828C21.0962 18.126 21.0127 18.5577 20.8537 18.972C20.7667 19.1994 20.6158 19.3874 20.4383 19.5498C19.872 20.0708 19.2292 20.4572 18.4622 20.5872C17.6522 20.7241 16.8608 20.6359 16.0822 20.3679C15.0936 20.0267 14.1142 19.6682 13.2102 19.1321C11.9826 18.4034 10.9185 17.4762 9.96001 16.4249C9.15238 15.5384 8.42481 14.5903 7.80981 13.5588C7.43036 12.9205 7.14259 12.2406 7.02887 11.5014C6.84089 10.2818 7.10546 9.1783 7.92469 8.23142C8.01984 8.12235 8.11731 8.01443 8.21827 7.91116C8.48051 7.64427 8.79614 7.49806 9.17559 7.50618C9.2835 7.5085 9.39142 7.50618 9.49933 7.50618C9.50049 7.51198 9.50049 7.51662 9.50049 7.52127Z" fill="#FBFBFB"/>
</svg>
